<?xml version="1.0" encoding="utf-8"?>
<!-- Generator: Adobe Illustrator 21.0.2, SVG Export Plug-In . SVG Version: 6.00 Build 0)  -->
<svg version="1.1" id="Layer_1" xmlns="http://www.w3.org/2000/svg" xmlns:xlink="http://www.w3.org/1999/xlink" x="0px" y="0px"
	 viewBox="0 0 38.4 25.6" enable-background="new 0 0 38.4 25.6" xml:space="preserve">
<g>
	<defs>
		<rect id="SVGID_1_" width="38.4" height="25.6"/>
	</defs>
	<clipPath id="SVGID_2_">
		<use xlink:href="#SVGID_1_"  overflow="visible"/>
	</clipPath>
	<path clip-path="url(#SVGID_2_)" fill="rgb(57, 164, 208)" d="M12.9,18.6c-1.3,0-2.4,0.6-2.4,1.3s1.1,1.3,2.4,1.3s2.4-0.6,2.4-1.3
		S14.3,18.6,12.9,18.6 M19.7,17.2c-1.3,0-2.4,0.6-2.4,1.3c0,0.7,1.1,1.3,2.4,1.3c1.3,0,2.4-0.6,2.4-1.3
		C22.2,17.8,21.1,17.2,19.7,17.2 M23.9,14c-1.3,0-2.4,0.6-2.4,1.3c0,0.7,1.1,1.3,2.4,1.3c1.3,0,2.4-0.6,2.4-1.3
		C26.3,14.5,25.2,14,23.9,14 M24.4,9.9c-1.3,0-2.4,0.6-2.4,1.3s1.1,1.3,2.4,1.3s2.4-0.6,2.4-1.3S25.7,9.9,24.4,9.9 M6.8,16.5
		c-1.3,0-2.4,0.6-2.4,1.3c0,0.7,1.1,1.3,2.4,1.3s2.4-0.6,2.4-1.3C9.3,17.1,8.2,16.5,6.8,16.5 M6.7,8.2c0.2,1.2,2,2.1,4.2,1.9
		c2.2-0.2,3.8-1.3,3.6-2.5C14.2,5.1,6.3,5.2,6.7,8.2 M3.7,14.5c2.5-0.1,5.2-0.3,4.8-1.2c-0.3-0.7-1.7-1.6-3.1-2.5
		c-3.8-2.5-3.9-3.7,0.1-6C8.7,3,13,2.2,16.7,2.6C22.3,3.1,27,6,28.6,10.1c2.1,5.6-2.6,11.6-10.5,13.2c-6.8,1.5-13.7-0.7-16.8-4.9
		C-1.3,15,0.2,14.7,3.7,14.5"/>
	<path clip-path="url(#SVGID_2_)" fill="rgb(57, 164, 208)" d="M33.6,9c0.5-2.6,1.4-4.6,1.8-7.4c0,0-0.2,0.8-0.5,1.3c-0.3,0.5-1.6,1.7-2.1,3.3
		C32.4,7.8,33.6,9,33.6,9 M33.9,10.9h2.3c1,5.2,0,10.1-0.8,14.7h-0.8C34,20.6,33,15.6,33.9,10.9 M34,10.3C28.7,7,34.7,3.2,35.4,0
		c0,0,1.7,1.9,2.5,4.1c0.9,2.4,0.6,4.8-1.7,6.2H34z"/>
</g>
</svg>
