<?xml version="1.0" encoding="utf-8"?>
<!-- Generator: Adobe Illustrator 21.0.2, SVG Export Plug-In . SVG Version: 6.00 Build 0)  -->
<svg version="1.1" id="Layer_1" xmlns="http://www.w3.org/2000/svg" xmlns:xlink="http://www.w3.org/1999/xlink" x="0px" y="0px"
	 viewBox="0 0 44.4 27.6" enable-background="new 0 0 44.4 27.6" xml:space="preserve">
<g>
	<defs>
		<rect id="SVGID_1_" width="44.4" height="27.6"/>
	</defs>
	<clipPath id="SVGID_2_">
		<use xlink:href="#SVGID_1_"  overflow="visible"/>
	</clipPath>
	<path clip-path="url(#SVGID_2_)" fill="rgb(57, 164, 208)" d="M40.2,10.7l0-0.1C40.2,10.6,40.2,10.6,40.2,10.7 M39.9,11.5l0.1-0.1
		C39.9,11.4,39.9,11.4,39.9,11.5 M39.5,12.2l0.1-0.1C39.6,12.1,39.6,12.2,39.5,12.2 M38,14.1L38,14.1C38.1,14,38,14,38,14.1 M33.7,0
		c1.2,0,2.3,0.2,3.4,0.7l0,0c0.2,0.1,0.3,0.1,0.5,0.2l0,0c0,0,0.1,0,0.1,0.1l0,0c0.1,0,0.2,0.1,0.3,0.2l0,0c0,0,0.1,0.1,0.1,0.1l0,0
		c0,0,0.1,0.1,0.1,0.1l0,0c0,0,0.1,0,0.1,0.1l0,0c0,0,0.1,0.1,0.1,0.1l0,0c0,0,0.1,0,0.1,0.1l0,0c0,0,0.1,0,0.1,0.1l0,0
		c0,0,0.1,0,0.1,0.1l0.1,0c0,0,0.1,0,0.1,0.1l0,0c0,0,0.1,0,0.1,0.1l0,0l0.1,0.1l0,0c0,0,0.1,0.1,0.1,0.1l0,0c0,0,0.1,0.1,0.1,0.1
		l0,0l0,0v0c1.7,1.6,2.7,3.8,2.7,6.3c0,0.3,0,0.6,0,0.9l0,3.4c0,0.8-0.7,1.5-1.5,1.5h-2.2c-1.3,1.2-3.1,1.9-5,1.9
		c-1.9,0-3.7-0.7-5-1.9h-2.2c-0.8,0-1.5-0.7-1.5-1.5V8.5c0,0,0-0.1,0-0.1C25.2,3.7,29,0,33.7,0 M30.9,9.4c0.5,0,0.9,0.4,0.9,0.9
		c0,0.5-0.4,0.9-0.9,0.9c-0.5,0-0.9-0.4-0.9-0.9C29.9,9.8,30.4,9.4,30.9,9.4 M36.3,9.4c0.5,0,0.9,0.4,0.9,0.9c0,0.5-0.4,0.9-0.9,0.9
		s-0.9-0.4-0.9-0.9C35.4,9.8,35.8,9.4,36.3,9.4 M31.8,12.2c0,0,0.1,0.1,0.1,0.1c0.5,0.4,1.2,0.6,1.9,0.6c0.7,0,1.3-0.2,1.7-0.6
		c0,0,0,0,0.1-0.1l0.7,0.6c0,0-0.1,0.1-0.1,0.1c-0.5,0.6-1.4,0.9-2.3,0.9c-0.9,0-1.8-0.2-2.5-0.8c-0.1,0-0.1-0.1-0.2-0.1L31.8,12.2z
		 M26.9,8.8L26.9,8.8c0,0.1,0,0.2,0,0.2v0c0,0.1,0,0.1,0,0.2l0,0c0,0,0,0.1,0,0.1l0,0c0,0.1,0,0.1,0,0.2l0,0c0,0.1,0,0.2,0,0.3l0,0
		c0,0,0,0.1,0,0.1l0,0c0,0,0,0.1,0,0.1l0,0c0,0,0,0.1,0,0.1l0,0c0,0,0,0.1,0,0.1l0,0l0,0c0,0,0,0.1,0,0.1l0,0c0,0,0,0.1,0,0.1l0,0
		c0,0,0,0.1,0,0.1l0,0c0,0,0,0.1,0,0.1l0,0c0,0,0,0.1,0,0.1l0,0l0,0c0,0,0,0.1,0.1,0.1l0,0c0,0,0,0.1,0.1,0.1l0,0c0,0,0,0.1,0,0.1
		l0,0c0,0,0,0.1,0.1,0.1l0,0c0,0,0,0.1,0.1,0.1l0,0l0,0c0,0,0,0.1,0.1,0.1l0,0c0,0,0,0.1,0.1,0.1l0,0c0,0,0,0.1,0.1,0.1l0,0
		c0,0,0,0.1,0.1,0.1l0,0c0,0,0,0.1,0.1,0.1l0,0c0,0,0.1,0.1,0.1,0.1l0,0c0,0,0.1,0.1,0.1,0.1l0,0c0,0,0,0.1,0.1,0.1l0,0
		c0,0,0.1,0.1,0.1,0.1l0,0c0,0,0.1,0.1,0.1,0.1l0,0c0,0,0.1,0.1,0.1,0.1l0,0c0,0,0.1,0.1,0.1,0.1l0,0c0,0,0.1,0.1,0.1,0.1l0,0
		c0,0,0.1,0.1,0.1,0.1l0,0c0,0,0.1,0,0.1,0.1l0,0c0,0,0.1,0.1,0.1,0.1l0,0c0,0,0.1,0.1,0.1,0.1l0,0c0,0,0.1,0,0.1,0.1l0,0
		c0,0,0.1,0.1,0.1,0.1l0,0c0,0,0.1,0,0.1,0.1l0,0c1.1,0.7,2.4,1.1,3.8,1.1c1.4,0,2.7-0.4,3.8-1.1l0,0c0,0,0.1,0,0.1-0.1l0,0
		c0,0,0.1-0.1,0.1-0.1l0,0c0,0,0.1,0,0.1-0.1l0,0c0,0,0.1,0,0.1-0.1l0,0c0,0,0.1-0.1,0.1-0.1l0,0c0,0,0.1,0,0.1-0.1l0,0
		c0,0,0.1-0.1,0.1-0.1l0,0c0,0,0.1-0.1,0.1-0.1l0,0c0,0,0.1-0.1,0.1-0.1l0,0c0,0,0.1-0.1,0.1-0.1l0,0c0,0,0-0.1,0.1-0.1l0,0
		c0,0,0.1-0.1,0.1-0.1l0,0c0,0,0-0.1,0.1-0.1l0,0c0,0,0.1-0.1,0.1-0.1l0,0c0,0,0.1-0.1,0.1-0.1l0,0c0,0,0-0.1,0.1-0.1l0,0
		c0,0,0-0.1,0.1-0.1l0,0c0,0,0-0.1,0.1-0.1l0,0c0,0,0-0.1,0.1-0.1l0,0c0,0,0-0.1,0.1-0.1l0,0l0,0c0,0,0-0.1,0.1-0.1l0,0
		c0,0,0-0.1,0.1-0.1l0,0c0,0,0-0.1,0-0.1l0,0c0,0,0-0.1,0.1-0.1l0,0c0,0,0-0.1,0.1-0.1l0,0l0,0c0,0,0-0.1,0-0.1l0,0c0,0,0-0.1,0-0.1
		l0,0c0,0,0-0.1,0-0.1l0,0c0,0,0-0.1,0-0.1l0,0c0,0,0-0.1,0-0.1l0,0l0,0c0,0,0-0.1,0-0.1l0,0c0,0,0-0.1,0-0.1l0,0c0,0,0-0.1,0-0.1
		l0,0c0,0,0-0.1,0-0.1l0,0c0-0.1,0-0.2,0-0.3l0,0c0-0.1,0-0.1,0-0.2l0,0c0,0,0-0.1,0-0.1l0,0c0-0.1,0-0.1,0-0.2l0,0
		c0-0.1,0-0.1,0-0.2v0c-1.4-0.7-2.5-1.6-3.3-2.6c-2.1,1.6-5.1,2.6-8.5,2.6C28,8.9,27.5,8.8,26.9,8.8 M22.8,27.6h21.6
		c-0.2-5.1-3.3-9.3-7.6-10.8l-3,9l-3.4-9C26.1,18.3,23,22.6,22.8,27.6"/>
	<path clip-path="url(#SVGID_2_)" fill="rgb(57, 164, 208)" d="M16.3,6H4.7C3.4,6,2.2,6.5,1.4,7.4C0.5,8.2,0,9.4,0,10.7v4.2
		c0,1.3,0.5,2.5,1.4,3.3c0.9,0.9,2,1.4,3.3,1.4h11.5c1.3,0,2.5-0.5,3.3-1.4c0.4-0.4,0.7-0.8,0.9-1.3c2-0.3,3.2-1.2,3.2-3.3L21,14.5
		v-3.8c0-1.3-0.5-2.5-1.4-3.3C18.7,6.5,17.6,6,16.3,6"/>
</g>
</svg>
