<?xml version="1.0" encoding="utf-8"?>
<!-- Generator: Adobe Illustrator 21.0.2, SVG Export Plug-In . SVG Version: 6.00 Build 0)  -->
<svg version="1.1" id="Layer_1" xmlns="http://www.w3.org/2000/svg" xmlns:xlink="http://www.w3.org/1999/xlink" x="0px" y="0px"
	 viewBox="0 0 41.5 23.5" enable-background="new 0 0 41.5 23.5" xml:space="preserve">
<g>
	<defs>
		<rect id="SVGID_1_" width="41.5" height="23.5"/>
	</defs>
	<clipPath id="SVGID_2_">
		<use xlink:href="#SVGID_1_"  overflow="visible"/>
	</clipPath>
	<path clip-path="url(#SVGID_2_)" fill="rgb(57, 164, 208)" d="M13.8,4.1h-0.4c-0.2-0.1-0.4-0.2-0.7-0.2c-0.3-0.1-0.6-0.1-0.9-0.1
		c-0.7,0-1.2,0.2-1.6,0.6S9.5,5.4,9.3,6.5L9.1,8.8h3v3H8.8l-0.7,5.6c-0.2,1.3-0.4,2.3-0.8,3.1c-0.4,0.8-0.9,1.4-1.4,1.9
		c-0.5,0.4-1.1,0.7-1.7,0.9c-0.6,0.2-1.2,0.3-1.9,0.3c-0.3,0-0.7,0-1.1-0.1c-0.4,0-0.8-0.1-1.1-0.2v-3.9h0.3
		c0.2,0.1,0.5,0.2,0.8,0.3c0.3,0.1,0.6,0.1,0.9,0.1c0.7,0,1.2-0.2,1.6-0.7c0.4-0.4,0.6-1.2,0.8-2.3L5,11.8H3.1v-3h2.2L5.6,6
		C5.8,4.7,6,3.7,6.5,2.9c0.4-0.8,0.9-1.4,1.4-1.8C8.4,0.7,9,0.4,9.7,0.2C10.3,0.1,11,0,11.5,0c0.4,0,0.7,0,1.1,0.1
		c0.4,0,0.7,0.1,1.1,0.2V4.1z"/>
	<path clip-path="url(#SVGID_2_)" fill="rgb(57, 164, 208)" d="M19.3,22.3c-1.3-1.1-2.3-2.5-3-4.1c-0.7-1.6-1-3.5-1-5.7c0-0.9,0.1-1.8,0.3-2.7
		c0.2-0.9,0.4-1.7,0.8-2.5c0.3-0.8,0.8-1.6,1.3-2.3C18,4.2,18.6,3.6,19.3,3h3.2v0.1c-0.7,0.7-1.3,1.3-1.8,2
		c-0.5,0.7-0.9,1.4-1.2,2.2c-0.3,0.8-0.6,1.6-0.7,2.4c-0.1,0.9-0.2,1.8-0.2,2.8c0,1.8,0.3,3.6,1,5.2c0.6,1.6,1.6,3.1,2.9,4.5v0.1
		H19.3z"/>
	<path clip-path="url(#SVGID_2_)" fill="rgb(57, 164, 208)" d="M26.9,13.5L23,7.1h3.7l2.1,3.8l2.1-3.8h3.4c0,0-0.1,0.1-0.2,0.4
		c-0.1,0.3-0.3,0.6-0.6,1c-0.2,0.4-0.5,0.8-0.8,1.3c-0.3,0.5-0.5,1-0.8,1.4c-0.3,0.5-0.5,0.9-0.7,1.3c-0.2,0.4-0.4,0.7-0.5,0.9
		l4.2,6.8h-3.6l-2.3-4l-2.1,4H23L26.9,13.5z"/>
	<path clip-path="url(#SVGID_2_)" fill="rgb(57, 164, 208)" d="M34.4,22.2c1.3-1.4,2.3-2.9,2.9-4.5c0.6-1.6,1-3.3,1-5.2c0-1-0.1-1.9-0.2-2.8
		s-0.4-1.7-0.7-2.4c-0.3-0.8-0.7-1.5-1.3-2.2c-0.5-0.7-1.1-1.4-1.8-2V3h3.2c0.7,0.6,1.2,1.2,1.7,1.9c0.5,0.7,0.9,1.5,1.3,2.3
		c0.3,0.8,0.6,1.7,0.8,2.5c0.2,0.9,0.3,1.8,0.3,2.7c0,2.1-0.3,4-1,5.7c-0.7,1.6-1.7,3-3,4.1L34.4,22.2L34.4,22.2z"/>
</g>
</svg>
