<?xml version="1.0" encoding="utf-8"?>
<!-- Generator: Adobe Illustrator 21.0.2, SVG Export Plug-In . SVG Version: 6.00 Build 0)  -->
<svg version="1.1" id="Layer_1" xmlns="http://www.w3.org/2000/svg" xmlns:xlink="http://www.w3.org/1999/xlink" x="0px" y="0px"
	 viewBox="0 0 30.2 45" enable-background="new 0 0 30.2 45" xml:space="preserve">
<g>
	<defs>
		<rect id="SVGID_1_" width="30.2" height="45"/>
	</defs>
	<clipPath id="SVGID_2_">
		<use xlink:href="#SVGID_1_"  overflow="visible"/>
	</clipPath>
	<path clip-path="url(#SVGID_2_)" fill="rgb(57, 164, 208)" d="M12.1,15.6l0,5.6l5.9,0l0-5.7c-0.5-0.1-0.9-0.4-1.2-0.7l0,0
		c-0.5-0.5-0.9-1.3-0.9-2.1v0c0-0.8,0.3-1.5,0.8-2.1c0.5-0.5,1.3-0.9,2.1-0.9l8.4,0c0.8,0,1.5,0.3,2.1,0.9h0
		c0.5,0.5,0.9,1.3,0.9,2.1h0c0,0.8-0.3,1.5-0.9,2.1c-0.3,0.3-0.8,0.6-1.2,0.7l0,18.8c0,1.4-0.6,2.6-1.5,3.6
		c-0.9,0.9-2.2,1.5-3.6,1.5v0c-1.4,0-2.6-0.6-3.6-1.5c-0.9-0.9-1.5-2.2-1.5-3.6l0-10.2l-1.5,0l0,16.9l8.7,0c1.1,0,1.9,0.9,1.9,1.9
		c0,1.1-0.9,1.9-1.9,1.9L5.6,45c-1.1,0-1.9-0.9-1.9-1.9c0-1.1,0.9-1.9,1.9-1.9l7.9,0l0-16.9l-1.3,0l0,10.2c0,1.4-0.6,2.7-1.5,3.6
		c-0.9,0.9-2.2,1.5-3.6,1.5c-1.4,0-2.7-0.6-3.6-1.5c-0.9-0.9-1.5-2.2-1.5-3.6l0-18.9c-0.5-0.1-0.9-0.4-1.2-0.7v0
		C0.3,14.4,0,13.7,0,12.9c0-0.8,0.3-1.5,0.8-2.1c0.5-0.5,1.3-0.9,2.1-0.9l8.4,0c0.8,0,1.5,0.3,2.1,0.9h0c0.5,0.5,0.9,1.3,0.9,2.1v0
		c0,0.8-0.3,1.5-0.9,2.1C13.1,15.2,12.6,15.5,12.1,15.6 M24.2,25.2l0,8.9c0,0.6-0.5,1.1-1.1,1.1c-0.6,0-1.1-0.5-1.1-1.1l0-8.9
		L24.2,25.2z M27.3,12.1l-8.4,0c-0.2,0-0.4,0.1-0.5,0.2c-0.1,0.1-0.2,0.3-0.2,0.5s0.1,0.4,0.2,0.5v0c0.1,0.1,0.3,0.2,0.5,0.2l8.4,0
		c0.2,0,0.4-0.1,0.5-0.2c0.1-0.1,0.2-0.3,0.2-0.5c0-0.2-0.1-0.4-0.2-0.5l0,0C27.7,12.2,27.5,12.1,27.3,12.1 M25.2,34.4l0-17.9
		l-4.3,0l0,17.9c0,0.6,0.2,1.1,0.6,1.5c0.4,0.4,0.9,0.6,1.5,0.6c0.6,0,1.1-0.2,1.5-0.6C25,35.6,25.2,35,25.2,34.4 M8.3,25.2l0,8.9
		c0,0.6-0.5,1.1-1.1,1.1c-0.6,0-1.1-0.5-1.1-1.1l0-8.9L8.3,25.2z M11.3,12.1l-8.4,0c-0.2,0-0.4,0.1-0.5,0.2
		c-0.1,0.1-0.2,0.3-0.2,0.5v0c0,0.2,0.1,0.4,0.2,0.5v0c0.1,0.1,0.3,0.2,0.5,0.2l8.4,0c0.2,0,0.4-0.1,0.5-0.2
		c0.1-0.1,0.2-0.3,0.2-0.5c0-0.2-0.1-0.4-0.2-0.5l0,0C11.7,12.2,11.5,12.1,11.3,12.1 M23.4,1.6L23.4,1.6c0.3,0.3,0.4,0.6,0.4,1
		c0,0.4-0.2,0.8-0.4,1l0,0c-0.3,0.3-0.6,0.4-1,0.4c-0.4,0-0.8-0.2-1-0.4l0,0c-0.3-0.3-0.4-0.6-0.4-1c0-0.4,0.2-0.8,0.4-1l0,0
		c0.3-0.3,0.6-0.4,1-0.4C22.8,1.1,23.1,1.3,23.4,1.6 M26.2,4.5c0.2,0.2,0.4,0.6,0.4,0.9c0,0.4-0.2,0.7-0.4,0.9
		c-0.2,0.2-0.6,0.4-0.9,0.4c-0.4,0-0.7-0.2-0.9-0.4c-0.2-0.2-0.4-0.6-0.4-0.9c0-0.4,0.2-0.7,0.4-0.9c0.2-0.2,0.6-0.4,0.9-0.4
		C25.6,4.1,25.9,4.3,26.2,4.5 M25.2,3c-0.1,0-0.2,0-0.3,0c0-0.1,0-0.3,0-0.5c0-0.7-0.3-1.4-0.8-1.8h0v0C23.7,0.3,23.1,0,22.4,0
		c-0.7,0-1.4,0.3-1.8,0.8l0,0c-0.5,0.5-0.8,1.1-0.8,1.8s0.3,1.4,0.8,1.8v0l0,0c0.5,0.5,1.1,0.8,1.8,0.8c0.1,0,0.3,0,0.4,0
		c0,0.1,0,0.2,0,0.4c0,0.7,0.3,1.3,0.7,1.7C23.9,7.7,24.5,8,25.2,8c0.7,0,1.3-0.3,1.8-0.7c0.4-0.4,0.7-1.1,0.7-1.7
		c0-0.7-0.3-1.3-0.7-1.8C26.5,3.3,25.9,3,25.2,3 M21.6,6.4L21.6,6.4c-0.2-0.2-0.4-0.2-0.6-0.2c-0.2,0-0.4,0.1-0.6,0.2
		c-0.2,0.2-0.2,0.4-0.2,0.6c0,0.2,0.1,0.4,0.2,0.6l0,0c0.2,0.2,0.4,0.2,0.6,0.2c0.2,0,0.4-0.1,0.6-0.2c0.2-0.2,0.2-0.4,0.2-0.6
		C21.9,6.7,21.8,6.5,21.6,6.4 M21,5c0.5,0,1,0.2,1.4,0.6v0C22.8,5.9,23,6.4,23,7c0,0.5-0.2,1-0.6,1.4c-0.4,0.4-0.9,0.6-1.4,0.6
		c-0.5,0-1-0.2-1.4-0.6l0,0C19.3,8,19,7.5,19,7c0-0.5,0.2-1,0.6-1.4C20,5.2,20.5,5,21,5 M7.5,3.2C7.4,3.1,7.3,3.1,7.2,3.1
		c-0.1,0-0.2,0-0.3,0.1C6.9,3.3,6.8,3.4,6.8,3.5c0,0.1,0,0.2,0.1,0.3s0.2,0.1,0.3,0.1c0.1,0,0.2,0,0.3-0.1c0.1-0.1,0.1-0.2,0.1-0.3
		C7.6,3.4,7.6,3.3,7.5,3.2 M3.8,3.1c0.3,0.3,0.5,0.7,0.5,1.1c0,0.4-0.2,0.8-0.5,1.1C3.5,5.6,3.1,5.7,2.7,5.7c-0.4,0-0.8-0.2-1.1-0.5
		C1.3,5,1.2,4.6,1.2,4.2c0-0.4,0.2-0.8,0.5-1.1c0.3-0.3,0.7-0.5,1.1-0.5C3.1,2.6,3.5,2.8,3.8,3.1 M2.7,1.5C2,1.5,1.3,1.8,0.8,2.3
		C0.3,2.8,0,3.5,0,4.2c0,0.7,0.3,1.4,0.8,1.9C1.3,6.6,2,6.9,2.7,6.9c0.7,0,1.4-0.3,1.9-0.8c0.5-0.5,0.8-1.2,0.8-1.9
		c0-0.7-0.3-1.4-0.8-1.9C4.1,1.8,3.5,1.5,2.7,1.5 M7.6,6.2C7.4,6,7.2,5.8,6.8,5.8C6.5,5.8,6.2,6,6,6.2C5.8,6.4,5.7,6.7,5.7,7
		c0,0.3,0.1,0.6,0.3,0.8C6.2,8,6.5,8.1,6.8,8.1c0.3,0,0.6-0.1,0.8-0.3C7.9,7.6,8,7.3,8,7C8,6.7,7.9,6.4,7.6,6.2 M7.8,4.9
		C8,5,8.3,5.2,8.5,5.4v0c0.4,0.4,0.7,1,0.7,1.6S8.9,8.2,8.5,8.6v0C8,9,7.5,9.3,6.8,9.3C6.2,9.3,5.6,9,5.2,8.6l0,0
		C4.8,8.2,4.5,7.6,4.5,7s0.3-1.2,0.7-1.6l0,0c0.3-0.3,0.7-0.5,1.2-0.6C6.3,4.7,6.2,4.6,6.1,4.5C5.8,4.3,5.7,3.9,5.7,3.5
		c0-0.4,0.2-0.8,0.4-1.1s0.7-0.4,1.1-0.4S8,2.1,8.3,2.4C8.6,2.7,8.7,3,8.7,3.5c0,0.4-0.2,0.8-0.4,1.1C8.1,4.7,8,4.8,7.8,4.9
		 M9.3,34.5l0-17.9l-4.3,0l0,17.9c0,0.6,0.2,1.1,0.6,1.5c0.4,0.4,0.9,0.6,1.5,0.6c0.6,0,1.1-0.2,1.5-0.6C9,35.6,9.3,35.1,9.3,34.5"
		/>
</g>
</svg>
