<?xml version="1.0" encoding="utf-8"?>
<!-- Generator: Adobe Illustrator 21.0.2, SVG Export Plug-In . SVG Version: 6.00 Build 0)  -->
<svg version="1.1" id="Layer_1" xmlns="http://www.w3.org/2000/svg" xmlns:xlink="http://www.w3.org/1999/xlink" x="0px" y="0px"
	 viewBox="0 0 33.6 44" enable-background="new 0 0 33.6 44" xml:space="preserve">
<g>
	<defs>
		<rect id="SVGID_1_" width="33.6" height="44"/>
	</defs>
	<clipPath id="SVGID_2_">
		<use xlink:href="#SVGID_1_"  overflow="visible"/>
	</clipPath>
	<path clip-path="url(#SVGID_2_)" fill="rgb(57, 164, 208)" d="M11.8,34.8l-0.5,1.6c1.2,0.3,2.5,0.4,3.9,0.4c4.6,0,8.9-1.9,11.9-4.9
		c3-3,4.9-7.3,4.9-11.9c0-4.6-1.9-8.9-4.9-11.9c-1.7-1.7-3.7-3-5.9-3.8l-0.5,1.6c2,0.8,3.7,1.9,5.2,3.4c2.8,2.8,4.5,6.6,4.5,10.8
		c0,4.2-1.7,8-4.5,10.8c-2.8,2.8-6.6,4.5-10.8,4.5C14,35.2,12.9,35.1,11.8,34.8 M10.6,15.2c-1.3-0.1-2.4-0.2-3.5-0.1
		c-2.1,0.1-3.6,0.6-3.8,1.5c-0.2,0.8,0.7,2,2.4,3.3c0.8,0.6,1.8,1.2,3,1.8c0.2-1.1,0.4-2.1,0.8-3.2v0l0,0l0,0
		C9.8,17.2,10.2,16.2,10.6,15.2 M20.1,17.7c-1.2-0.5-2.4-0.9-3.7-1.3c-1.2-0.4-2.4-0.6-3.6-0.8c-0.5,1.1-0.9,2.2-1.2,3.4v0l0,0l0,0
		c-0.4,1.2-0.6,2.4-0.8,3.6c1.1,0.4,2.2,0.8,3.4,1.2l0,0c1.3,0.4,2.6,0.7,3.9,0.9c0.4-1.1,0.9-2.2,1.2-3.4
		C19.7,20,19.9,18.8,20.1,17.7 M24.9,20.2c-0.8-0.6-1.7-1.1-2.7-1.6c-0.2,1-0.4,2.1-0.8,3.2c-0.3,1.1-0.7,2.1-1.1,3.1
		c1.1,0.1,2.2,0.1,3.2,0.1c2.1-0.1,3.6-0.6,3.8-1.5C27.5,22.7,26.6,21.5,24.9,20.2 M4.3,13.4C5.1,13.1,6,13,7,12.9
		c1.3-0.1,2.9,0,4.5,0.2c0.7-1.3,1.4-2.5,2.1-3.4c0.8-1.1,1.7-1.9,2.6-2.5c-0.3,0-0.6,0-1,0C10.6,7.2,6.5,9.6,4.3,13.4 M8.4,23.9
		c-1.5-0.7-2.8-1.5-3.9-2.3c-0.8-0.6-1.5-1.2-2-1.8c0,0.1,0,0.2,0,0.3c0,4.9,2.8,9.2,6.8,11.4c-0.5-0.9-0.8-2.1-0.9-3.5
		C8.2,26.7,8.3,25.3,8.4,23.9 M17.1,26.6c-1.1-0.2-2.2-0.5-3.3-0.8l-0.2,0c-1.1-0.3-2.1-0.7-3.1-1c-0.1,1.1-0.1,2.1,0,2.9
		c0.2,2,0.8,3.4,1.6,3.7l0,0c0.9,0.3,2.1-0.6,3.3-2.2C16.1,28.4,16.6,27.6,17.1,26.6 M26.3,26.7c-0.8,0.2-1.7,0.4-2.7,0.5
		c-1.3,0.1-2.7,0-4.2-0.1c-0.7,1.3-1.4,2.5-2.1,3.5c-0.8,1.1-1.7,1.9-2.5,2.4c0.2,0,0.4,0,0.6,0C20,32.9,24.1,30.4,26.3,26.7
		 M22.5,16.3c1.4,0.7,2.6,1.4,3.7,2.1c0.8,0.6,1.5,1.2,2,1.8c0-0.1,0-0.2,0-0.3c0-4.8-2.6-9-6.5-11.2c0.4,0.9,0.7,2.1,0.9,3.4
		C22.7,13.4,22.6,14.8,22.5,16.3 M17,14.2c1.2,0.3,2.3,0.7,3.4,1.2c0.1-1.1,0.1-2.1,0-3c-0.2-2-0.8-3.4-1.6-3.7
		c-0.9-0.3-2.1,0.6-3.3,2.2c-0.5,0.7-1.1,1.5-1.6,2.5C14.8,13.7,15.9,13.9,17,14.2 M6.8,40.6L6.8,40.6L8,36.9
		c-0.6-0.3-1.2-0.5-1.7-0.8l0.5-1.5c0.6,0.3,1.1,0.6,1.7,0.9l0.5-1.6c-1.7-0.8-3.2-1.8-4.5-3.1C1.7,28,0,24.2,0,20
		c0-4.2,1.7-8,4.5-10.8C7.2,6.5,11,4.8,15.2,4.8c0.9,0,1.8,0.1,2.6,0.2l0.5-1.6c-0.7-0.1-1.3-0.2-2-0.3l0.5-1.5
		c0.7,0.1,1.4,0.2,2,0.3L19,1.1c0.2-0.8,1.1-1.3,1.9-1c0.8,0.2,1.3,1.1,1,1.9l-0.3,0.8c2.5,0.9,4.7,2.4,6.5,4.2
		c3.3,3.3,5.4,7.9,5.4,13c0,5.1-2.1,9.7-5.4,13c-3.3,3.3-7.9,5.4-13,5.4c-1.5,0-2.9-0.2-4.3-0.5l-0.8,2.7h15.1
		c1.4,0,2.5,1.1,2.5,2.5V44H4.3v-0.9C4.3,41.7,5.4,40.6,6.8,40.6"/>
</g>
</svg>
