<?xml version="1.0" encoding="utf-8"?>
<!-- Generator: Adobe Illustrator 21.0.2, SVG Export Plug-In . SVG Version: 6.00 Build 0)  -->
<svg version="1.1" id="Layer_1" xmlns="http://www.w3.org/2000/svg" xmlns:xlink="http://www.w3.org/1999/xlink" x="0px" y="0px"
	 viewBox="0 0 44 27.8" enable-background="new 0 0 44 27.8" xml:space="preserve">
<g>
	<defs>
		<rect id="SVGID_1_" width="44" height="27.8"/>
	</defs>
	<clipPath id="SVGID_2_">
		<use xlink:href="#SVGID_1_"  overflow="visible"/>
	</clipPath>
	<path clip-path="url(#SVGID_2_)" fill="#00AEEF" d="M40.7,14c0,0.9-0.7,1.7-1.6,1.7L32.9,16c-0.2,0-0.4-0.2-0.4-0.4v-1.1
		c0-0.8,0.6-1.4,1.4-1.5l6.1-0.8c0.3,0,0.6,0.3,0.6,0.6V14z M6.8,9.1C6.4,9.1,6.4,8.9,6.5,8.7l4.7-5.8c0.2-0.3,0.4-0.4,0.8-0.4
		c8.3-0.6,11.8-0.5,20.1,0c0.3,0,0.6,0.2,0.8,0.4l4.7,5.8c0.1,0.2,0.1,0.5-0.3,0.4C25.5,8.5,18.5,8.4,6.8,9.1 M11.5,15.6
		c0,0.2-0.2,0.4-0.4,0.4l-6.1-0.2c-0.9,0-1.6-0.8-1.6-1.7v-1.3c0-0.3,0.3-0.6,0.6-0.6l6.1,0.8c0.8,0.1,1.4,0.7,1.4,1.5V15.6z
		 M44,8.3l-0.4-1.5c-0.1-0.5-0.7-0.9-1.2-0.9H38l-3.8-4.7C34,1,33.5,0.5,32.7,0.4c-8.3-0.5-13-0.5-21.4,0C10.5,0.5,10,1,9.8,1.2
		L6,5.9H1.6c-0.5,0-1,0.4-1.2,0.9L0,8.3C0,8.5,0.1,8.6,0.3,8.7l2.5,1.1l-1,1.3c-0.6,0.8-0.9,1.8-0.9,3.2v12.6c0,0.5,0.4,0.9,0.9,0.9
		h6.9c0.5,0,0.9-0.4,0.9-0.9v-1.3h24.8v1.3c0,0.5,0.4,0.9,0.9,0.9h6.9c0.5,0,0.9-0.4,0.9-0.9V14.3c0-1.3-0.3-2.4-0.9-3.2l-1-1.3
		l2.5-1.1C43.9,8.6,44,8.5,44,8.3"/>
</g>
</svg>
