<?xml version="1.0" encoding="utf-8"?>
<!-- Generator: Adobe Illustrator 21.0.2, SVG Export Plug-In . SVG Version: 6.00 Build 0)  -->
<svg version="1.1" id="Layer_1" xmlns="http://www.w3.org/2000/svg" xmlns:xlink="http://www.w3.org/1999/xlink" x="0px" y="0px"
	 viewBox="0 0 42.8 53.5" enable-background="new 0 0 42.8 53.5" xml:space="preserve">
<g>
	<defs>
		<rect id="SVGID_1_" width="42.8" height="53.5"/>
	</defs>
	<clipPath id="SVGID_2_">
		<use xlink:href="#SVGID_1_"  overflow="visible"/>
	</clipPath>
	<path clip-path="url(#SVGID_2_)" fill="#00AEEF" d="M11.8,12.6c0,0-0.3,0.9-0.3,1.7c0.1,0.9,0.4,2.1,1.1,3c0.6,0.8,1.3,1,1.7,1
		c0.7-0.1,1.5-0.7,1.7-2.4c0.2-1.6-0.1-3-0.6-3.8c-0.5-0.8-1.2-0.9-1.9-0.9c-0.8,0-1.1,0.4-1.2,0.5C12.1,11.9,11.8,12.6,11.8,12.6"
		/>
	<path clip-path="url(#SVGID_2_)" fill="#00AEEF" d="M10.1,27.3c0,0-2.2,6.1-2.9,7.9S2.7,45.8,2.2,47c-0.5,1.2-1,2.4-1.8,4.2
		c-0.5,1.1-0.3,1.7,0,1.9c0.7,0.6,1.4,0.6,2.4-1.1c1.2-2,6.5-12.1,9.5-15.6c1.6-1.9,2-2.4,2.7-2.3c0.7,0.1,2,1.5,3.6,4.1
		c1.6,2.5,5.1,8.5,6.5,11.2c1.4,2.8,1.7,3.8,2.7,4.1c0.8,0.2,1.8-0.1,1.7-1.5c-0.1-0.9-2.1-4.5-4-9.1c-2.2-5.3-4.1-10.2-4.4-11.2
		c-0.6-1.9-1.8-5.1-1.5-6.2c0.4-1.2,1.5-3.1,2.8-5.1c1.4-1.9,4.1-5.3,6.1-7.6c1.3-1.5,1.9-2.4,2-2.8c0.2-1.1-0.3-1.4-0.7-1.4
		c-1.2,0-1.6,0.7-3.2,2.4c-1.6,1.7-5.6,6.1-7.6,7.6c-1.3,1.1-3,2-3.6,2.1c-0.7,0.1-1.9,0.5-3.5-0.4c-3.5-2.1-8.7-7.6-9.6-8.4
		c-0.9-0.8-1.8-1-2.3-0.5c-0.4,0.4-0.1,1.2,0.6,2.2c0.7,1,5.1,5.6,6.2,7.3c0.8,1.3,2,3.1,2.6,4.1c0.4,0.6,0.5,1.3,0.5,1.8
		C10.2,27,10.1,27.3,10.1,27.3"/>
	<path clip-path="url(#SVGID_2_)" fill="#00AEEF" d="M42,5c0,0,0-0.1,0-0.1c0.1-0.2,0.2-0.2,0.3-0.3c0.1-0.1,0.4-0.1,0.4-0.1
		s0,0-0.5-0.3c-1-0.6-1.2-0.9-1.2-1.1c-0.1-0.4-0.1-0.9-0.2-1.2c-0.2-0.4-0.6-0.7-0.9-0.8C39.6,0.9,39,0.7,39,0.7l0.1-0.2
		c0,0,0.2-0.3,0.1-0.3c0,0-0.2,0-0.4-0.1c-0.1,0-1.8-0.1-2.1-0.1c-0.3,0-2.1,0-2.1,0s-0.4,0-0.5,0c-0.2,0-0.3,0.1-0.5,0.3
		C33.5,0.4,32.3,1.7,32,2c-0.2,0.2-0.7,0.8-1.1,1.3c-0.3,0.4-0.6,0.7-0.5,0.9c0,0.1,0.8,0.3,1.9,0.5c1.2,0.2,2.9,0.4,3.3,0.2
		c0.3-0.1,0.5-0.5,0.8-0.8c0.3-0.3,1.2-1.4,1.2-1.4s0,0.1-0.3,0.7c-0.3,0.5-0.7,1.2-1.3,1.7c-0.4,0.3-1.3,0.2-1.6,0.1
		C34,5.2,33,5,33,5s0.2,0.8,0.3,0.9c0.1,0.1,1.6,0.4,2.1,0.5c0.5,0.1,1.1,0.1,1.3,0c0.2-0.1,0.6-0.8,0.8-1.2c0.2-0.3,1-1.9,1-2
		c0-0.1-0.1-0.2-0.1-0.3c-0.1-0.1-0.6-0.6-0.6-0.6l1.1-1.4c0,0,0.6,0.1,1,0.4c0.1,0.1,0.4,0.2,0.4,0.9c0,0.4-0.2,1,0,1.3
		c0.1,0.2,0.5,0.6,0.8,0.9c0.2,0.2,0.7,0.5,0.7,0.5L42,5z"/>
</g>
</svg>
