<?xml version="1.0" encoding="utf-8"?>
<!-- Generator: Adobe Illustrator 21.0.2, SVG Export Plug-In . SVG Version: 6.00 Build 0)  -->
<svg version="1.1" id="Layer_1" xmlns="http://www.w3.org/2000/svg" xmlns:xlink="http://www.w3.org/1999/xlink" x="0px" y="0px"
	 viewBox="0 0 37.2 36.7" enable-background="new 0 0 37.2 36.7" xml:space="preserve">
<g>
	<defs>
		<rect id="SVGID_1_" width="37.2" height="36.7"/>
	</defs>
	<clipPath id="SVGID_2_">
		<use xlink:href="#SVGID_1_"  overflow="visible"/>
	</clipPath>
	<path clip-path="url(#SVGID_2_)" fill="#00AEEF" d="M5.4,32.2h5.4c0.3,0,0.6-0.2,0.6-0.6v-7.8c0-0.3-0.2-0.6-0.6-0.6H5.4
		c-0.3,0-0.6,0.3-0.6,0.6v7.8C4.9,32,5.1,32.2,5.4,32.2"/>
	<path clip-path="url(#SVGID_2_)" fill="#00AEEF" d="M14.9,20.6c-0.3,0-0.6,0.3-0.6,0.6v10.6c0,0.3,0.3,0.6,0.6,0.6h5.4
		c0.3,0,0.6-0.2,0.6-0.6V21.1c0-0.3-0.3-0.6-0.6-0.6H14.9z"/>
	<path clip-path="url(#SVGID_2_)" fill="#00AEEF" d="M24.4,14.9c-0.3,0-0.6,0.3-0.6,0.6v16.2c0,0.3,0.3,0.6,0.6,0.6h5.4
		c0.3,0,0.6-0.2,0.6-0.6V15.5c0-0.3-0.2-0.6-0.6-0.6H24.4z"/>
	<path clip-path="url(#SVGID_2_)" fill="#00AEEF" d="M35.9,34.1H2.7L2.7,34V6c0-0.7-0.6-1.3-1.3-1.3C0.6,4.7,0,5.2,0,6v28
		c0,1.5,1.2,2.7,2.7,2.7h33.2c0.7,0,1.3-0.6,1.3-1.3S36.6,34.1,35.9,34.1"/>
	<path clip-path="url(#SVGID_2_)" fill="#00AEEF" d="M17.2,17.9c2.3-1,4.6-2.5,6.6-4.7c1.7-1.8,3.3-4,4.5-6.6c0.2,1.3,0.4,2.7,0.6,4
		l3.1-0.5C31.6,7.5,30.5,0,30.5,0s-7.1,2.8-9.9,4l1.2,2.9c1.2-0.5,2.5-1,3.7-1.4c-1.1,2.3-2.4,4.2-3.9,5.7c-2.7,2.7-5.8,4.3-8.6,5.1
		c-2.8,0.9-5.4,1-6.9,1c-0.4,0-0.8,0-1,0c-0.1,0-0.1,0-0.2,0v3.1c0.3,0,0.7,0,1.2,0C8.4,20.3,12.7,20,17.2,17.9"/>
</g>
</svg>
