<?xml version="1.0" encoding="utf-8"?>
<!-- Generator: Adobe Illustrator 21.0.2, SVG Export Plug-In . SVG Version: 6.00 Build 0)  -->
<svg version="1.1" id="Layer_1" xmlns="http://www.w3.org/2000/svg" xmlns:xlink="http://www.w3.org/1999/xlink" x="0px" y="0px"
	 viewBox="0 0 38.4 28.2" enable-background="new 0 0 38.4 28.2" xml:space="preserve">
<path fill="#00AEEF" d="M10,24.5v2.3H7.8v1.4h13.6v-1.4h-1.9v-2.3H10z M16.4,18.2l1.5-1.6l2.5,2.5l1.5-1.5l-2.6-2.6l1.4-1.5
	l-7.1-2.1L16.4,18.2z M31.6,13h4.6v-2.3h-4.6V13z M2.5,8.2h24.8v13H2.5V8.2z M28.5,5.7H1.2H0v1.2v15.5v1.2h1.2h27.3h1.2v-1.2V6.9
	V5.7H28.5z M31.6,7.3h4.6V5h-4.6V7.3z M34.8,18.2h2.4v1.3h-2.4V18.2z M34.8,15.9h2.4v1.3h-2.4V15.9z M25.6,0v3.8h3.7h2.3h5.2h0.6
	v0.6v3.5v0.6h-0.6h-5.2v1.1h5.2h0.6v0.6v3.5v0.6h-0.6h-5.2v11.3h-6v2.7h12.9V0H25.6z"/>
</svg>
