<?xml version="1.0" encoding="utf-8"?>
<!-- Generator: Adobe Illustrator 21.0.2, SVG Export Plug-In . SVG Version: 6.00 Build 0)  -->
<svg version="1.1" id="Layer_1" xmlns="http://www.w3.org/2000/svg" xmlns:xlink="http://www.w3.org/1999/xlink" x="0px" y="0px"
	 viewBox="0 0 25.3 55.9" enable-background="new 0 0 25.3 55.9" xml:space="preserve">
<g>
	<defs>
		<rect id="SVGID_1_" width="25.3" height="55.9"/>
	</defs>
	<clipPath id="SVGID_2_">
		<use xlink:href="#SVGID_1_"  overflow="visible"/>
	</clipPath>
	<path clip-path="url(#SVGID_2_)" fill="#00AEEF" d="M22.7,7.6c-1.5,3.7-3.6,11.3-0.4,18.8c3.7,8.4,3,15.9,2.6,18.6
		c-0.1,0.6-0.7,1-1.2,1H1.6c-0.6,0-1.1-0.5-1.2-1c-0.4-2.7-1.1-10.2,2.6-18.6c3.3-7.5,1.1-15-0.4-18.8C2,6.2,2.6,5,4,4.6
		C6.4,4,9.7,3,9.8,2.1C9.9,0.6,10,0,10,0h5.2c0,0,0.1,0.6,0.2,2.1c0.1,0.9,3.4,2,5.8,2.6C22.6,5,23.2,6.2,22.7,7.6"/>
</g>
<rect x="11.5" y="46.5" fill="#00AEEF" width="2.3" height="9.4"/>
</svg>
