<?xml version="1.0" encoding="utf-8"?>
<!-- Generator: Adobe Illustrator 21.0.2, SVG Export Plug-In . SVG Version: 6.00 Build 0)  -->
<svg version="1.1" id="Layer_1" xmlns="http://www.w3.org/2000/svg" xmlns:xlink="http://www.w3.org/1999/xlink" x="0px" y="0px"
	 viewBox="0 0 33.2 33.2" enable-background="new 0 0 33.2 33.2" xml:space="preserve">
<g>
	<defs>
		<rect id="SVGID_1_" width="33.2" height="33.2"/>
	</defs>
	<clipPath id="SVGID_2_">
		<use xlink:href="#SVGID_1_"  overflow="visible"/>
	</clipPath>
	<path clip-path="url(#SVGID_2_)" fill="rgb(57, 164, 208)" d="M14.1,23.7c-4.2,1.9-6.8,5.3-5.8,7.5c1,2.3,5.3,2.5,9.5,0.6
		c3.9-1.8,6.4-4.7,6-7V12.7c4.5,0.5,6.9,1.1,5,6.4l1.3,1c3.3-3.3,4.3-5.9,1.7-10c-2.1-3.3-5.9-6.6-8-10.1h-4.1v22.5
		C18,22.4,16.1,22.9,14.1,23.7 M2.7,14.7c0.7-0.3,1.5-0.5,2.1-0.6v-6V4.6V4.2h11.8v0.5v3.4v7.3c0,1-1.1,2.2-2.7,2.9
		c-1.9,0.9-3.8,0.7-4.3-0.3c-0.5-1,0.7-2.5,2.6-3.4c0.7-0.3,1.5-0.5,2.1-0.6v-6H7.1v7.2c0.1,1-1,2.3-2.7,3c-1.9,0.9-3.8,0.7-4.3-0.3
		C-0.4,17.1,0.8,15.6,2.7,14.7"/>
</g>
</svg>
