<?xml version="1.0" encoding="utf-8"?>
<!-- Generator: Adobe Illustrator 21.0.2, SVG Export Plug-In . SVG Version: 6.00 Build 0)  -->
<svg version="1.1" id="Layer_1" xmlns="http://www.w3.org/2000/svg" xmlns:xlink="http://www.w3.org/1999/xlink" x="0px" y="0px"
	 viewBox="0 0 22.9 31.5" enable-background="new 0 0 22.9 31.5" xml:space="preserve">
<g>
	<defs>
		<rect id="SVGID_1_" width="22.9" height="31.5"/>
	</defs>
	<clipPath id="SVGID_2_">
		<use xlink:href="#SVGID_1_"  overflow="visible"/>
	</clipPath>
	<path clip-path="url(#SVGID_2_)" fill="rgb(57, 164, 208)" d="M20.8,20.7c-1.2,2.1-2.7,4-4.4,5.7c-0.4,0.5-0.5,1-0.4,1.6
		c0.1,0.6,0.4,1.1,0.9,1.4c0.6-0.1,1.1,0.3,1.3,0.9c0.1,0.6-0.3,1.2-0.9,1.3H5.6c-0.6-0.1-1-0.7-0.9-1.3c0.1-0.6,0.7-1,1.3-0.9
		c0.5-0.3,0.8-0.8,0.9-1.4c0.1-0.6-0.1-1.2-0.4-1.6c-1.7-1.7-3.1-3.6-4.4-5.7h9.3H20.8z M4.5,1.5C4.4,1.4,4.4,1.3,4.3,1.2
		C4.1,0.8,4.2,0.3,4.5,0h13.9c0.3,0.3,0.4,0.8,0.2,1.2c-0.1,0.1-0.1,0.2-0.2,0.3H4.5z M5.7,7.1C5.8,7,5.8,6.9,5.9,6.8
		C6,6.6,6.1,6.3,6.1,6.1c0.4-1.3,0.2-2.7-0.5-3.9h11.7c-0.7,1.2-0.9,2.5-0.5,3.8c0.1,0.4,0.2,0.7,0.4,1.1H5.7z M1.6,11.6
		c0.2-0.4,0.4-0.8,0.7-1.1C2.6,10.1,3,9.7,3.4,9.3C4.1,9,4.8,8.4,5.3,7.8h12.3c0.5,0.7,1.2,1.2,1.9,1.5c0.4,0.4,0.8,0.8,1.1,1.2
		c0.3,0.4,0.5,0.7,0.7,1.1c0.1,0.2,0.2,0.3,0.2,0.5c1.1,2.5,1,5.4-0.4,7.9H1.7c-1.4-2.5-1.5-5.4-0.4-7.9C1.4,11.9,1.5,11.8,1.6,11.6
		 M0.6,12.2c-0.1,0-0.1,0-0.2-0.1c-0.3-0.2-0.4-0.5-0.3-0.8c0.1-0.3,0.4-0.5,0.7-0.6C0.3,9.5,0,8.3,0,7c0-1.7,1-3.2,2.6-3.8
		c0.9-0.2,1.8,0,2.5,0.6c0.2,0.2,0.4,0.4,0.5,0.6c0,0.5,0,1.1-0.1,1.6C5.4,6.4,5.2,6.8,4.9,7.2C4.8,7.1,4.7,6.9,4.7,6.7l0-0.7
		c0-0.4-0.2-0.9-0.5-1.2C3.9,4.6,3.4,4.4,3,4.5C2,4.8,1.4,5.9,1.4,6.9c0,1,0.2,2,0.6,2.9C1.4,10.6,1,11.3,0.6,12.2 M20.9,9.8
		c0.4-0.9,0.6-1.9,0.6-2.9c0-1.1-0.6-2.1-1.6-2.4c-0.4-0.1-0.9,0-1.2,0.3c-0.3,0.3-0.5,0.7-0.5,1.2l0,0.7c0,0.2-0.1,0.4-0.2,0.5
		c-0.3-0.4-0.5-0.8-0.6-1.3c-0.1-0.5-0.2-1-0.1-1.6c0.1-0.2,0.3-0.4,0.5-0.6c0.7-0.6,1.6-0.8,2.5-0.6C21.9,3.7,23,5.3,22.9,7
		c0,1.3-0.3,2.6-0.8,3.7c0.3,0,0.6,0.3,0.7,0.6c0.1,0.3,0,0.7-0.3,0.8c0,0-0.1,0.1-0.2,0.1C22,11.3,21.5,10.6,20.9,9.8"/>
</g>
</svg>
