<?xml version="1.0" encoding="utf-8"?>
<!-- Generator: Adobe Illustrator 21.0.2, SVG Export Plug-In . SVG Version: 6.00 Build 0)  -->
<svg version="1.1" id="Layer_1" xmlns="http://www.w3.org/2000/svg" xmlns:xlink="http://www.w3.org/1999/xlink" x="0px" y="0px"
	 viewBox="0 0 41 43.9" enable-background="new 0 0 41 43.9" xml:space="preserve">
<g>
	<defs>
		<rect id="SVGID_1_" width="41" height="43.9"/>
	</defs>
	<clipPath id="SVGID_2_">
		<use xlink:href="#SVGID_1_"  overflow="visible"/>
	</clipPath>
	<path clip-path="url(#SVGID_2_)" fill="rgb(57, 164, 208)" d="M19,33.3c0,0-0.6,1.8-1.9,0.8c-0.9-0.7,0.3-2.5,1.3-4c0.5-0.8,1-1.5,1-1.7
		c0-0.1,0-0.2,0-0.2c0,0,0,0,0,0c0,0,0,0-0.1,0c-0.1,0-0.1,0.1-0.1,0.1l-0.7-0.1c0.1-0.4,0.3-0.6,0.6-0.7c0.1,0,0.3-0.1,0.4-0.1
		c0.1,0,0.3,0.1,0.4,0.1c0.2,0.2,0.4,0.4,0.4,0.9c0,0.4-0.5,1.2-1.1,2.1c-0.8,1.3-1.8,2.8-1.5,3.1c0.5,0.4,0.8-0.5,0.8-0.5L19,33.3z
		 M10.7,26.8c0,0-0.8,0.4-0.3,0.8c0.3,0.3,1.6-1,2.7-2.1c0.8-0.7,1.4-1.4,1.8-1.5c0.4-0.1,0.7,0,0.9,0.2c0.1,0.1,0.2,0.2,0.2,0.3
		c0,0.1,0,0.3,0,0.4c0,0.3-0.2,0.6-0.6,0.7l-0.3-0.7c0.1,0,0.1-0.1,0.1-0.1c0,0,0,0,0-0.1c0,0,0,0,0,0c0,0-0.1,0-0.2,0
		c-0.2,0.1-0.8,0.6-1.5,1.3c-1.3,1.3-2.9,2.8-3.7,2.1c-1.3-1.1,0.4-2,0.4-2L10.7,26.8z M14.4,17c-0.1,0.4-0.2,0.7-0.4,1.1
		c4.1,1.3-4.1,9-4.9,5.4c-0.5,0.1-0.9,0.2-1.4,0.4C7.2,27,2,26.5,1,31.5c0.1,0,0.2,0,0.2,0c0.8-0.1,2.1,0.4,3.9,1.7l0.2,0.2
		c1.1,0.8,2.1,1.5,2.7,2.2c1.3,1.4,1.2,2.7-1.1,5.1c2.9,2.2,6.2,3.7,8.1,3.1c5.5-1.8,3.7-7.2,6.8-8.5c0-0.5,0.1-0.9,0.1-1.4
		c-3.7,0,2.2-9.6,4.3-5.8c0.3-0.2,0.7-0.4,1-0.6c0.5-2,3.9-2.8,4.7-5.4c0.7-2-0.6-5-2.6-7l5.9-7.8l0.7,0.5l0.5-0.8l0.1-0.2l0,0
		l0.4-0.6l0.3,0.2c-0.2,0.4-0.1,0.9,0.3,1.2c0.4,0.3,1.1,0.3,1.5-0.2c0.4-0.4,0.3-1.1-0.2-1.5c-0.4-0.3-0.9-0.3-1.3,0l-0.3-0.3
		l0.6-0.9L38,4.9l0.4-0.4L38,4.2l0.4-0.6L39,4.1c-0.2,0.4-0.1,0.9,0.3,1.2c0.4,0.3,1.1,0.3,1.5-0.2C41.1,4.7,41,4,40.6,3.6
		c-0.4-0.3-0.9-0.3-1.3,0l-0.6-0.5l0.8-1.3l-1.8-1.5l-1.1,1.1l-0.9-0.7l-0.4,0.4l0.9,0.7l-0.5,0.5l-1-0.8c0.2-0.4,0.1-0.9-0.3-1.3
		c-0.4-0.3-1.1-0.3-1.5,0.2c-0.4,0.4-0.3,1.1,0.2,1.5c0.4,0.3,0.9,0.3,1.2,0.1l0.9,0.7l-0.8,0.7l-0.6-0.5l-0.4,0.4L34,3.8l-0.5,0.5
		l-0.7-0.5c0.2-0.4,0.1-0.9-0.3-1.3c-0.4-0.3-1.1-0.3-1.5,0.2c-0.4,0.4-0.3,1.1,0.2,1.5c0.4,0.3,0.9,0.3,1.2,0.1l0.6,0.5l-0.4,0.4
		l0.5,0.4L18.7,22.9l-0.3-0.3l-0.2-0.2l0.2-0.2l6.9-10.2C17.3,6.9,16.8,17,14.4,17 M3.9,34.3c3.2,2.3,4.6,3.2,0.7,6.7
		C-0.4,36.9-2.3,29.7,3.9,34.3"/>
</g>
</svg>
