<?xml version="1.0" encoding="utf-8"?>
<!-- Generator: Adobe Illustrator 21.0.2, SVG Export Plug-In . SVG Version: 6.00 Build 0)  -->
<svg version="1.1" id="Layer_1" xmlns="http://www.w3.org/2000/svg" xmlns:xlink="http://www.w3.org/1999/xlink" x="0px" y="0px"
	 viewBox="0 0 46 33.5" enable-background="new 0 0 46 33.5" xml:space="preserve">
<g>
	<defs>
		<rect id="SVGID_1_" width="46" height="33.5"/>
	</defs>
	<clipPath id="SVGID_2_">
		<use xlink:href="#SVGID_1_"  overflow="visible"/>
	</clipPath>
	<path clip-path="url(#SVGID_2_)" fill="rgb(57, 164, 208)" d="M6.9,23h32V3.6h-32V23z M20.4,28.2L19,31H27l-1.7-2.8H20.4z M25.8,11.9v0.7h0.7
		v1h0.7v-2.4h-0.7v0.6H25.8z M34,19.8h0.7v-2.4h0.7v-2h0.7v-4.1h-0.7v4.1h-0.7v2H34V19.8h-5.6v-1.5h-0.7v-1.5h-0.7v-1.5h-0.7v-0.7
		h-0.7v-0.7h-0.7v-1.7h1.2v-0.7h-1.9v0.7v1.7h0.7v0.7h0.7v0.7h0.7v1.5h0.7v1.5h0.7v1.5h0.7v0.7H34V19.8z M26.6,6.9v0.7v0.7v0.7v0.7
		v0.7v0.7h0.7v-0.7V9.9V9.1V8.4V7.6V6.9h0.7h0.7v0.7v0.7v0.7v0.7v1.7h0.7V9.9V9.1h0.7H31v0.7v0.7v1.3h0.7v-1.3V9.9h0.7h0.7v0.7v0.7
		v1.1H34v-1.1v-0.7h0.7v0.7h0.7v-0.7h-0.7V9.9H34h-0.7V9.1h-0.7h-0.7H31V8.4h-0.7h-0.7V7.6V6.9h-0.7V6.1h-0.7h-0.7v0.7H26.6z M7.1,0
		h31.7c1.9,0,3.4,1.5,3.4,3.4v19.1c0,1.6-1.1,3-2.7,3.3l6.6,4.8v3H0v-3l6.1-4.8h0c-1.4-0.4-2.5-1.7-2.5-3.3V3.4C3.7,1.5,5.2,0,7.1,0
		"/>
</g>
</svg>
