<?xml version="1.0" encoding="utf-8"?>
<!-- Generator: Adobe Illustrator 21.0.2, SVG Export Plug-In . SVG Version: 6.00 Build 0)  -->
<svg version="1.1" id="Layer_1" xmlns="http://www.w3.org/2000/svg" xmlns:xlink="http://www.w3.org/1999/xlink" x="0px" y="0px"
	 viewBox="0 0 32.4 31.6" enable-background="new 0 0 32.4 31.6" xml:space="preserve">
<g>
	<defs>
		<rect id="SVGID_1_" width="32.4" height="31.6"/>
	</defs>
	<clipPath id="SVGID_2_">
		<use xlink:href="#SVGID_1_"  overflow="visible"/>
	</clipPath>
	<path clip-path="url(#SVGID_2_)" fill="rgb(57, 164, 208)" d="M31.1,25.2C31.1,25.2,31.1,25.2,31.1,25.2c0.6,0.4,0.7,0.6,0.4,1.2
		c-0.1,0.2-0.3,0.4-0.4,0.6c-0.5,0.4-1,0.8-1.5,1.2c-0.8,0.6-1.6,1.1-2.5,1.7c-0.9,0.6-1.8,0.8-2.8,0.9c-1.7,0.2-3.4,0.5-5.1,0.8
		c-1,0.1-2.1,0.4-3.1,0c-1.1-0.4-2.2-0.9-3.2-1.4c-1.8-0.8-3.5-1.7-5.3-2.5c-0.7-0.3-1.4-0.5-2.2-0.6c-0.6,0-0.8-0.3-0.8-0.8
		c0-2,0-4.1,0-6.1c0-0.4,0.2-0.6,0.5-0.7c2.2-0.6,4.4-1.1,6.7-0.9c1.5,0.1,2.9,0.5,4.2,1.1c0,0,0,0,0.1,0c1.3,0.9,2.9,1.1,4.4,1.1
		c1.4,0.1,2.8,0.3,4.1,0.8c0.6,0.2,1.1,0.5,1.4,1.1c0.1,0.2,0.2,0.6,0.1,0.8c-0.3,1.1-1.1,1.8-2,1.7c-1.8-0.1-3.7-0.3-5.5-0.4
		c-0.6,0-1.2,0-1.8,0.1c0,0-0.1,0-0.1,0.1c1.6,0.7,3.1,1.4,4.9,1.3c1.1-0.1,2.2-0.2,3.3-0.4c0.9-0.1,1.7-0.6,2.4-1.2
		c0.7-0.7,1.5-1.1,2.5-1.3c0.5-0.1,0.9,0,1.4,0.3c0.6,0.4,0.6,0.9,0.2,1.4C31.2,25,31.2,25.1,31.1,25.2"/>
	<path clip-path="url(#SVGID_2_)" fill="rgb(57, 164, 208)" d="M15.1,11.7c0,3.1,2.5,5.6,5.6,5.5c3.1,0,5.5-2.5,5.5-5.7c0-3-2.6-5.4-5.6-5.4
		C17.6,6.2,15.1,8.7,15.1,11.7 M26.6,21.8c-0.8-1-2-1.4-3.1-1.6c-1.5-0.2-3.1-0.4-4.6-0.6c-0.6-0.1-1.2-0.2-1.7-0.5
		c-1.3-0.7-2.7-1.3-4.2-1.5c-0.7-0.1-1.4-0.1-2.2-0.2c-0.2,0-0.3,0-0.5-0.2c-0.5-0.9-0.5-0.7,0.2-1.3c0.3-0.3,0.7-0.6,1-0.9
		c0.1-0.1,0.2-0.2,0.1-0.4c-0.1-0.3-0.2-0.6-0.3-1c0-0.2-0.1-0.3-0.3-0.3c-0.6-0.1-1.2-0.2-1.8-0.3C9.1,13,9,12.9,9,12.7
		c0-0.6,0-1.2,0-1.9c0-0.3,0.1-0.4,0.3-0.4c0.6-0.1,1.2-0.2,1.8-0.3c0.2,0,0.3-0.1,0.3-0.3c0.1-0.3,0.2-0.6,0.2-1
		c0-0.1,0-0.3-0.1-0.4c-0.5-0.4-0.9-0.8-1.4-1.2C10,7,9.9,6.9,10.1,6.6c0.3-0.5,0.6-1,0.9-1.6c0.1-0.2,0.3-0.3,0.5-0.2
		c0.6,0.2,1.1,0.4,1.7,0.6c0.2,0.1,0.3,0.1,0.5-0.1c0.2-0.2,0.4-0.5,0.7-0.7c0.2-0.1,0.2-0.3,0.1-0.4c-0.2-0.6-0.4-1.1-0.6-1.7
		c-0.1-0.3-0.1-0.4,0.2-0.6c0.5-0.3,1-0.6,1.5-0.9C15.8,1,16,1,16.2,1.2c0.4,0.5,0.8,0.9,1.2,1.4c0.1,0.1,0.2,0.2,0.4,0.1
		c0.3-0.1,0.6-0.2,0.9-0.3c0.2,0,0.3-0.2,0.4-0.4c0.1-0.6,0.2-1.1,0.3-1.7c0-0.3,0.2-0.5,0.5-0.5c0.6,0,1.2,0,1.8,0
		C21.9,0,22,0.1,22,0.3c0.1,0.6,0.2,1.2,0.3,1.9c0,0.2,0.1,0.3,0.3,0.3c0.3,0.1,0.7,0.2,1,0.3c0.2,0.1,0.3,0,0.4-0.1
		c0.4-0.5,0.8-0.9,1.2-1.4C25.4,1,25.5,1,25.7,1.1c0.5,0.3,1.1,0.6,1.6,0.9c0.2,0.1,0.3,0.3,0.2,0.5c-0.2,0.6-0.4,1.2-0.6,1.7
		c-0.1,0.2,0,0.3,0.1,0.5c0.2,0.2,0.5,0.4,0.7,0.7c0.1,0.2,0.3,0.2,0.5,0.1c0.6-0.2,1.2-0.4,1.7-0.6c0.2-0.1,0.4,0,0.5,0.2
		c0.3,0.5,0.6,1.1,0.9,1.6c0.1,0.2,0.1,0.4-0.1,0.5c-0.5,0.4-1,0.8-1.5,1.2c-0.1,0.1-0.2,0.2-0.1,0.4c0.1,0.3,0.2,0.6,0.3,1
		c0,0.2,0.1,0.3,0.3,0.3c0.6,0.1,1.2,0.2,1.9,0.3c0.2,0,0.3,0.1,0.3,0.4c0,0.6,0,1.3,0,1.9c0,0.2-0.1,0.3-0.3,0.4
		c-0.6,0.1-1.2,0.2-1.8,0.3c-0.2,0-0.3,0.1-0.4,0.4c0,0.3-0.1,0.6-0.2,0.9c-0.1,0.2,0,0.3,0.1,0.5c0.5,0.4,0.9,0.8,1.4,1.1
		c0.2,0.2,0.3,0.3,0.1,0.6c-0.3,0.5-0.6,1-0.9,1.5c-0.1,0.2-0.3,0.3-0.5,0.2c-0.6-0.2-1.2-0.4-1.7-0.6c-0.2-0.1-0.3,0-0.4,0.1
		c-0.2,0.2-0.4,0.5-0.7,0.7c-0.2,0.1-0.2,0.3-0.1,0.5c0.2,0.6,0.4,1.1,0.6,1.7c0.1,0.3,0.1,0.5-0.2,0.6C27,21.6,26.8,21.7,26.6,21.8
		"/>
	<path clip-path="url(#SVGID_2_)" fill="rgb(57, 164, 208)" d="M0,23.1c0-1.5,0-3,0-4.5c0-0.6,0.2-0.8,0.8-0.8c0.7,0,1.4,0,2.1,0
		c0.6,0,0.8,0.2,0.8,0.8c0,3,0,6.1,0,9.1c0,0.6-0.2,0.8-0.8,0.8c-0.7,0-1.3,0-2,0c-0.6,0-0.8-0.2-0.8-0.8C0,26.1,0,24.6,0,23.1"/>
</g>
</svg>
