<?xml version="1.0" encoding="utf-8"?>
<!-- Generator: Adobe Illustrator 21.0.2, SVG Export Plug-In . SVG Version: 6.00 Build 0)  -->
<svg version="1.1" id="Layer_1" xmlns="http://www.w3.org/2000/svg" xmlns:xlink="http://www.w3.org/1999/xlink" x="0px" y="0px"
	 viewBox="0 0 36 36.1" enable-background="new 0 0 36 36.1" xml:space="preserve">
<g>
	<defs>
		<rect id="SVGID_1_" width="36" height="36.1"/>
	</defs>
	<clipPath id="SVGID_2_">
		<use xlink:href="#SVGID_1_"  overflow="visible"/>
	</clipPath>
	<path clip-path="url(#SVGID_2_)" fill="rgb(57, 164, 208)" d="M16.7,26.1h2.7c0.8,0,1.5,0.3,2,0.8s0.8,1.2,0.8,2v1.4c0,0.2-0.1,0.3-0.3,0.3
		c-0.1,0-0.1,0-0.2-0.1c-0.3-0.2-0.7-0.4-1-0.5c-0.4-0.1-0.8-0.2-1.2-0.2h-3.1c-0.4,0-0.8,0.1-1.2,0.2c-0.4,0.1-0.7,0.3-1.1,0.5
		c-0.1,0.1-0.3,0-0.4-0.1c0,0,0-0.1,0-0.2h0v-1.4c0-0.8,0.3-1.5,0.8-2l0,0l0,0C15.2,26.4,15.9,26.1,16.7,26.1 M25.8,26.1h2.7
		c0.8,0,1.5,0.3,2,0.8l0,0c0.5,0.5,0.8,1.2,0.8,2v0.8c0,0.2-0.1,0.3-0.3,0.3c0,0,0,0-0.1,0c-0.1,0-0.3,0-0.4-0.1l0,0
		c-0.1,0-0.3,0-0.4,0h-3.1c-0.7,0-1.3,0.2-1.9,0.4c-0.6,0.3-1.1,0.7-1.5,1.2c-0.1,0.1-0.1,0.1-0.2,0.1v0h-0.4
		c-0.2,0-0.3-0.1-0.3-0.3v-2.5c0-0.8,0.3-1.5,0.8-2l0,0C24.3,26.4,25,26.1,25.8,26.1 M5.8,30.7h3c0.9,0,1.7,0.4,2.3,0.9
		s0.9,1.4,0.9,2.3v1.8c0,0.2-0.1,0.3-0.3,0.3H2.9c-0.2,0-0.3-0.1-0.3-0.3V34c0-0.9,0.4-1.7,0.9-2.3S4.9,30.7,5.8,30.7 M16.5,30.7
		h3.1c0.9,0,1.7,0.4,2.3,0.9c0.6,0.6,0.9,1.4,0.9,2.3v1.8c0,0.2-0.1,0.3-0.3,0.3h-8.9c-0.2,0-0.3-0.1-0.3-0.3V34
		c0-0.9,0.4-1.7,0.9-2.3C14.8,31.1,15.6,30.7,16.5,30.7 M27.1,30.7h3.1c0.9,0,1.7,0.4,2.3,0.9c0.6,0.6,0.9,1.4,0.9,2.3v1.8
		c0,0.2-0.1,0.3-0.3,0.3h-8.9c-0.2,0-0.3-0.1-0.3-0.3V34c0-0.9,0.4-1.7,0.9-2.3S26.3,30.7,27.1,30.7 M4.2,0h27.7
		C33,0,34,0.5,34.8,1.2C35.6,2,36,3,36,4.2v21.6c0,0.2-0.1,0.3-0.3,0.3H31c-0.1,0-0.1,0-0.2-0.1c-0.1-0.1-0.2-0.2-0.3-0.2
		c-0.1-0.1-0.2-0.1-0.4-0.2c-0.1-0.1-0.2-0.2-0.2-0.3h0c0.1-1.7,0.5-3.3,0.9-4.6c0.5-1.4,1.1-2.6,1.8-3.5v-1.5
		c-1.6-0.4-2.9-1.8-4-3.8c-1-1.9-1.6-4.3-1.8-7c-0.8,0.8-2,1.4-3.3,1.9c-1.7,0.6-3.8,1-5.6,1c-1.8,0-3.9-0.4-5.6-1
		c-1.3-0.5-2.5-1.1-3.3-1.9c-0.2,2.7-0.8,5.1-1.8,7c-1,2-2.4,3.4-4,3.8v1.5c0.7,0.9,1.4,2.2,1.8,3.5c0.5,1.4,0.8,3,0.9,4.6
		c0,0.1-0.1,0.2-0.2,0.3c-0.1,0.1-0.2,0.1-0.3,0.2c-0.1,0.1-0.2,0.2-0.3,0.2C5.2,26,5.1,26,5.1,26H0.3C0.1,26,0,25.9,0,25.7V4.2
		C0,3,0.5,2,1.2,1.2C2,0.5,3,0,4.2,0 M7.5,26.1h2.7c0.8,0,1.5,0.3,2,0.8l0,0c0.5,0.5,0.8,1.2,0.8,2v2.5c0,0.2-0.1,0.3-0.3,0.3h-0.4
		c-0.1,0-0.2-0.1-0.2-0.1c-0.4-0.5-0.9-0.9-1.4-1.2c-0.6-0.3-1.2-0.4-1.9-0.4h-3c-0.1,0-0.3,0-0.4,0c-0.1,0-0.3,0-0.4,0.1
		c-0.2,0-0.3-0.1-0.3-0.2c0,0,0,0,0-0.1v-0.8c0-0.8,0.3-1.5,0.8-2l0,0C6.1,26.4,6.8,26.1,7.5,26.1"/>
</g>
</svg>
