<?xml version="1.0" encoding="utf-8"?>
<!-- Generator: Adobe Illustrator 21.0.2, SVG Export Plug-In . SVG Version: 6.00 Build 0)  -->
<svg version="1.1" id="Layer_1" xmlns="http://www.w3.org/2000/svg" xmlns:xlink="http://www.w3.org/1999/xlink" x="0px" y="0px"
	 viewBox="0 0 39.7 25.4" enable-background="new 0 0 39.7 25.4" xml:space="preserve">
<g>
	<defs>
		<rect id="SVGID_1_" width="39.7" height="25.4"/>
	</defs>
	<clipPath id="SVGID_2_">
		<use xlink:href="#SVGID_1_"  overflow="visible"/>
	</clipPath>
	<path clip-path="url(#SVGID_2_)" fill="rgb(57, 164, 208)" d="M17.5,7c-0.7,0-1.1,0.4-1.1,1.1c0,0.6,0.5,1.1,1.1,1.1c0.6,0,1.1-0.5,1.1-1.1
		C18.6,7.5,18.1,7,17.5,7"/>
	<path clip-path="url(#SVGID_2_)" fill="rgb(57, 164, 208)" d="M12.2,12.7c-0.7,0-1.1,0.4-1.1,1.1c0,0.6,0.5,1.1,1.1,1.1
		c0.6,0,1.1-0.5,1.1-1.1C13.3,13.1,12.9,12.7,12.2,12.7"/>
	<path clip-path="url(#SVGID_2_)" fill="rgb(57, 164, 208)" d="M10.8,14.1c-0.7,0-1.1,0.4-1.1,1.1c0,0.6,0.5,1.1,1.1,1.1
		c0.6,0,1.1-0.5,1.1-1.1C11.9,14.5,11.5,14.1,10.8,14.1"/>
	<path clip-path="url(#SVGID_2_)" fill="rgb(57, 164, 208)" d="M13.3,10.8c-0.7,0-1.1,0.4-1.1,1.1c0,0.6,0.5,1.1,1.1,1.1
		c0.6,0,1.1-0.5,1.1-1.1C14.4,11.3,14,10.8,13.3,10.8"/>
	<path clip-path="url(#SVGID_2_)" fill="rgb(57, 164, 208)" d="M14.3,8.9c-0.7,0-1.1,0.4-1.1,1.1c0,0.6,0.5,1.1,1.1,1.1c0.6,0,1.1-0.5,1.1-1.1
		C15.4,9.3,14.9,8.9,14.3,8.9"/>
	<path clip-path="url(#SVGID_2_)" fill="rgb(57, 164, 208)" d="M9.2,25.3c0,0,20.4,0,22.1,0c1.6,0,0.4-1.1-1.6-1.3c-5.8-0.6-10.1-1.1-13.9-2
		C15.8,22.1,5.4,24.7,9.2,25.3"/>
	<path clip-path="url(#SVGID_2_)" fill="rgb(57, 164, 208)" d="M35.4,16.1c-0.7,0-1.2-0.5-1.2-1.1c0-0.6,0.5-1.2,1.2-1.2
		c0.6,0,1.2,0.5,1.2,1.2C36.6,15.5,36,16,35.4,16.1 M32.1,17.4c-0.6,0-1.2-0.5-1.2-1.1c0-0.6,0.5-1.2,1.1-1.2c0.6,0,1.2,0.5,1.2,1.2
		C33.3,16.8,32.7,17.4,32.1,17.4 M25.6,15.3c-2.6,1-7.3,3.6-8.4,4.3c0,0-0.1,0-0.1-0.1c0.3-0.5,1.1-2.1,2.2-3.3
		c2.3-2.4,4.6-3.2,7.9-3.6c1.3-0.2,4,0.5,3.9,0.7c0,0.1-0.5,0.2-0.6,0.3C28.8,14.2,27.3,14.6,25.6,15.3 M14.6,21.1
		c-2.6,1.4-5.3,2-8.2,1.9c-1.8,0-3.5-0.2-4.4-1.8C1.2,20,0.8,18.2,5.5,17c1.3-0.3,4.2-0.5,6.2-2.8c0.1-0.1,0.2-0.2,0.3-0.4
		c0.2-0.3,0.4-0.5,0.5-0.9c0.4-0.8,0.9-1.6,1.3-2.4c0.1-0.1,0.1-0.2,0.2-0.4c0.3-0.5,0.5-0.9,0.7-1.3c0.2-0.5,0.4-0.8,0.6-1.1
		c0.4-0.6,0.9-1.1,1.5-1.6C17.1,6,17.4,6,17.9,6.1c2.3,0.6,4.6,1.1,7,1.2c0.5,0,0.9,0,1.4-0.1c1.5-0.3,2.5-1.2,2.9-2.7
		c0.2-0.8,0.3-1.5,0.7-2.2c0.3-0.5,0.7-0.9,1.2-1.1c0.2-0.1,0.3-0.1,0.4,0.1c0.4,1.3,1.5,2.1,2.3,3c0,0,0.1,0.1,0.1,0.1
		C34.3,5,34.3,5,33.9,5.7c-0.5,0.9-0.8,1.9-0.9,2.9c0,0.6,0,1.2,0,1.8c-2-0.4-4.4-0.2-6.2,0.1c-0.8,0.1-1.5,0.2-2.2,0.4c0,0,0,0,0,0
		h0c-2.8,0.8-5,2.4-7,5c-1,1.3-2.4,4.3-2.4,4.3C15.2,20.6,14.9,21,14.6,21.1 M39.1,11.5c-0.3-0.5-0.6-1-0.9-1.5
		c-0.2-0.3-0.3-0.6-0.3-0.9c-0.2-0.8-0.4-1.5-0.8-2.2c-1-1.4-2.1-2.8-3.3-4.1c-0.6-0.7-1.2-1.4-1.5-2.3C32,0,31.7-0.1,31,0.1
		c-2.9,0.7-3.5,3.1-3.7,3.8c-0.2,0.9-0.8,1.4-1.6,1.6c-0.7,0.2-4.9,0.2-6.6-0.1c-0.2,0-0.3-0.1-0.3-0.4c0-0.9-0.4-1.3-1.3-1.6
		c-0.5-0.1-1-0.2-1.4-0.3c-0.6-0.2-1,0-1.3,0.5c-0.2,0.3-0.3,0.5-0.4,0.8c-0.4,1.1-0.6,2.2-0.7,3.4c-0.1,0.5,0,1-0.3,1.4
		c-0.5,1-1,2.1-1.6,3.1c-0.7,1.2-1.6,2.2-3,2.6c-1.2,0.4-2.3,0.5-3.7,0.8c-4.1,0.9-5.2,2.8-5,4.7c0.2,1.9,1.5,3.8,3.8,4.4
		c1.5,0.4,3.1,0.5,4.5,0.5c0.3,0,0.6,0,0.9,0c1.4,0,2.6-0.1,3.8-0.2c1.8-0.1,3.5-0.6,5-1.7c0.6-0.4,1.2-0.8,1.9-1.1
		c0.9-0.4,2-0.7,3-0.9c3.6-0.8,7.2-1.7,10.7-2.8c1.3-0.4,2.6-0.8,3.8-1.5C39.3,16.1,40.6,14,39.1,11.5"/>
</g>
</svg>
