<svg id="Layer_1" data-name="Layer 1" xmlns="http://www.w3.org/2000/svg" xmlns:xlink="http://www.w3.org/1999/xlink" viewBox="0 0 630 47.38">
  <defs>
    <style>
      .cls-1, .cls-4 {
        fill: none;
      }

      .cls-2 {
        fill: #00aeef;
      }

      .cls-3 {
        clip-path: url(#clip-path);
      }

      .cls-4 {
        stroke: #bac1c6;
      }

      .cls-5 {
        fill: #fff;
      }
    </style>
    <clipPath id="clip-path" transform="translate(0.5 0.5)">
      <rect class="cls-1" x="-0.5" y="-0.5" width="630" height="47.38"/>
    </clipPath>
  </defs>
  <title>aztec-pattern-triangle</title>
  <rect class="cls-2" x="0.5" y="0.5" width="629" height="45.8"/>
  <g class="cls-3">
    <rect class="cls-4" x="0.5" y="0.5" width="629" height="45.8"/>
  </g>
  <polygon class="cls-5" points="588 23.79 597.26 32.21 606.53 40.63 606.53 23.79 606.53 6.95 597.26 15.37 588 23.79"/>
  <polygon class="cls-5" points="611.48 23.79 611.48 40.63 620.74 32.21 630 23.79 620.74 15.37 611.48 6.95 611.48 23.79"/>
  <polygon class="cls-5" points="546 23.79 555.26 32.21 564.53 40.63 564.53 23.79 564.53 6.95 555.26 15.37 546 23.79"/>
  <polygon class="cls-5" points="588 23.79 578.74 32.21 569.48 40.63 569.48 23.79 569.48 6.95 578.74 15.37 588 23.79"/>
  <polygon class="cls-5" points="504 23.79 513.26 32.21 522.52 40.63 522.52 23.79 522.52 6.95 513.26 15.37 504 23.79"/>
  <polygon class="cls-5" points="546 23.79 536.74 32.21 527.48 40.63 527.48 23.79 527.48 6.95 536.74 15.37 546 23.79"/>
  <polygon class="cls-5" points="462 23.79 471.26 32.21 480.52 40.63 480.52 23.79 480.52 6.95 471.26 15.37 462 23.79"/>
  <polygon class="cls-5" points="504 23.79 494.74 32.21 485.48 40.63 485.48 23.79 485.48 6.95 494.74 15.37 504 23.79"/>
  <polygon class="cls-5" points="420 23.79 429.26 32.21 438.53 40.63 438.53 23.79 438.53 6.95 429.26 15.37 420 23.79"/>
  <polygon class="cls-5" points="462 23.79 452.74 32.21 443.48 40.63 443.48 23.79 443.48 6.95 452.74 15.37 462 23.79"/>
  <polygon class="cls-5" points="378 23.79 387.26 32.21 396.53 40.63 396.53 23.79 396.53 6.95 387.26 15.37 378 23.79"/>
  <polygon class="cls-5" points="420 23.79 410.74 32.21 401.48 40.63 401.48 23.79 401.48 6.95 410.74 15.37 420 23.79"/>
  <polygon class="cls-5" points="336 23.79 345.26 32.21 354.53 40.63 354.53 23.79 354.53 6.95 345.26 15.37 336 23.79"/>
  <polygon class="cls-5" points="378 23.79 368.74 32.21 359.48 40.63 359.48 23.79 359.48 6.95 368.74 15.37 378 23.79"/>
  <polygon class="cls-5" points="294 23.79 303.26 32.21 312.53 40.63 312.53 23.79 312.53 6.95 303.26 15.37 294 23.79"/>
  <polygon class="cls-5" points="336 23.79 326.74 32.21 317.48 40.63 317.48 23.79 317.48 6.95 326.74 15.37 336 23.79"/>
  <polygon class="cls-5" points="252 23.79 261.26 32.21 270.53 40.63 270.53 23.79 270.53 6.95 261.26 15.37 252 23.79"/>
  <polygon class="cls-5" points="294 23.79 284.74 32.21 275.48 40.63 275.48 23.79 275.48 6.95 284.74 15.37 294 23.79"/>
  <polygon class="cls-5" points="210 23.79 219.26 32.21 228.53 40.63 228.53 23.79 228.53 6.95 219.26 15.37 210 23.79"/>
  <polygon class="cls-5" points="252 23.79 242.74 32.21 233.48 40.63 233.48 23.79 233.48 6.95 242.74 15.37 252 23.79"/>
  <polygon class="cls-5" points="168 23.79 177.26 32.21 186.53 40.63 186.53 23.79 186.53 6.95 177.26 15.37 168 23.79"/>
  <polygon class="cls-5" points="210 23.79 200.74 32.21 191.48 40.63 191.48 23.79 191.48 6.95 200.74 15.37 210 23.79"/>
  <polygon class="cls-5" points="126 23.79 135.26 32.21 144.53 40.63 144.53 23.79 144.53 6.95 135.26 15.37 126 23.79"/>
  <polygon class="cls-5" points="168 23.79 158.74 32.21 149.48 40.63 149.48 23.79 149.48 6.95 158.74 15.37 168 23.79"/>
  <polygon class="cls-5" points="84 23.79 93.26 32.21 102.53 40.63 102.53 23.79 102.53 6.95 93.26 15.37 84 23.79"/>
  <polygon class="cls-5" points="126 23.79 116.74 32.21 107.48 40.63 107.48 23.79 107.48 6.95 116.74 15.37 126 23.79"/>
  <polygon class="cls-5" points="42 23.79 51.26 32.21 60.53 40.63 60.53 23.79 60.53 6.95 51.26 15.37 42 23.79"/>
  <polygon class="cls-5" points="84 23.79 74.74 32.21 65.47 40.63 65.47 23.79 65.47 6.95 74.74 15.37 84 23.79"/>
  <polygon class="cls-5" points="0 23.79 9.26 32.21 18.53 40.63 18.53 23.79 18.53 6.95 9.26 15.37 0 23.79"/>
  <polygon class="cls-5" points="42 23.79 32.74 32.21 23.48 40.63 23.48 23.79 23.48 6.95 32.74 15.37 42 23.79"/>
  <rect class="cls-5" y="40.34" width="630" height="7.04"/>
  <rect class="cls-5" y="0.03" width="630" height="7.04"/>
</svg>
