<?xml version="1.0" encoding="utf-8"?>
<!-- Generator: Adobe Illustrator 21.0.2, SVG Export Plug-In . SVG Version: 6.00 Build 0)  -->
<svg version="1.1" id="Layer_1" xmlns="http://www.w3.org/2000/svg" xmlns:xlink="http://www.w3.org/1999/xlink" x="0px" y="0px"
	 viewBox="0 0 223.7 50.6" enable-background="new 0 0 223.7 50.6" xml:space="preserve">
<g>
	<polygon points="58,33.5 87.2,33.5 87.2,13.3 80.9,29.4 69.2,29.4 85.2,3.7 88.2,0.1 58.7,0.1 58.7,21 64,4.2 76.3,4.2 60.5,29.4 	
		"/>
	<polygon points="154.9,29.4 143.3,29.4 136.9,13.3 136.9,33.5 166.3,33.5 163.6,29.4 147.9,4.2 160.1,4.2 165.5,21 165.5,0.1 
		135.9,0.1 138.9,3.7 	"/>
	<path d="M97.5,19.1c0,0-0.2,5.6,3.1,9.8c3.3,4.2,8.4,5.3,11.3,5.3c2.9,0,5.8-1.2,5.8-1.2v1.7l12.8-5.1l-4.1-1.6V3.8l2.3-3.8h-13.1
		l2.1,3c0,0,0,18.3,0,20.1c0,1.9,0.3,7.3-5.7,7.3c-6,0-5.7-7.4-5.7-7.4V3.4l1.5-3.2H95.3l2.1,3V19.1z"/>
	<polygon points="164.3,38.7 58.8,38.7 58.8,43.1 56,49.7 168.4,49.7 164.3,43.9 	"/>
	<polygon points="216.8,46 216.2,45.4 216.2,37.9 209.7,37.9 208.4,36.4 208.4,29.7 202.6,29.7 201,27.9 201,20.8 194.9,20.8 
		193.3,19 193.3,11.5 186.8,11.5 184.6,9 188.7,0.2 173.3,0.2 173.3,0.2 173.3,46.7 170.5,49.6 187,49.6 183.6,47 183.5,44 
		192.9,33.9 183.2,33.9 182.7,17.5 206.7,47 205.5,49.7 210.3,49.7 223.7,49.7 223.7,46.1 	"/>
	<polygon points="50.4,0.2 35,0.2 39.1,9 36.9,11.5 30.4,11.5 30.4,19 28.9,20.8 22.7,20.8 22.7,27.9 21.1,29.7 15.4,29.7 
		15.4,36.4 14.1,37.9 7.5,37.9 7.5,45.4 7,46 0,46.1 0,49.7 13.4,49.7 18.2,49.7 17,47 41,17.5 40.5,33.9 29.9,33.9 40.2,45 
		40.2,47 36.7,49.6 53.3,49.6 50.4,46.7 	"/>
</g>
<text transform="matrix(1 0 0 1 66.9024 47.088)" fill="#FFFFFF" font-family="'Baskerville-Bold'" font-size="8.9127px" letter-spacing="2">HIGH SCHOOL</text>
<text transform="matrix(1 0 0 1 66.9024 47.088)" fill="#FFFFFF" font-family="'Baskerville-Bold'" font-size="8.9127px" letter-spacing="2">HIGH SCHOOL</text>
</svg>
