<?xml version="1.0" encoding="utf-8"?>
<!-- Generator: Adobe Illustrator 21.0.2, SVG Export Plug-In . SVG Version: 6.00 Build 0)  -->
<svg version="1.1" id="Layer_1" xmlns="http://www.w3.org/2000/svg" xmlns:xlink="http://www.w3.org/1999/xlink" x="0px" y="0px"
	 viewBox="0 0 122.6 120.7" style="enable-background:new 0 0 122.6 120.7;" xml:space="preserve">
<style type="text/css">
	.st0{fill:#050506;}
	.st1{fill:#050606;}
	.st2{fill-rule:evenodd;clip-rule:evenodd;fill:#050506;}
	.st3{fill-rule:evenodd;clip-rule:evenodd;fill:#D6883F;}
	.st4{fill-rule:evenodd;clip-rule:evenodd;fill:#FFFFFF;}
	.st5{fill-rule:evenodd;clip-rule:evenodd;fill:#F89C49;}
	.st6{fill-rule:evenodd;clip-rule:evenodd;fill:#00ADEE;}
	.st7{fill:none;stroke:#E1098B;stroke-miterlimit:10;}
	.st8{fill:#00ADEE;}
	.st9{fill:#FFFFFF;}
	.st10{fill:#00588D;}
</style>
<g>
	<path class="st0" d="M81.9,39.9L93.3,10C82.2,2.3,71.1-0.1,61.3,0c-0.1,0-0.3,0-0.4,0c-0.3,0-0.5,0-0.8,0c-0.2,0-0.5,0-0.7,0
		C44,0.8,32,7.7,28.8,9.7l12,30.2c-7.8,4.2-9,9.2-9.1,11.3l-1.1,13.9l6.9-12.3c0-0.1,0.7-1.3,2.4-2.8l2.3,1.7v0l0,0l0.1,0.1
		c-0.3,1-0.6,2.1-0.8,3.1l-0.3,1.2c-0.2,0.2-0.4,0.4-0.6,0.5l0.4,0.4L40.2,60l2.7-0.7l1.7,2c0,0,0,0-0.2,0.1c0,0,3.6-2.2,17.3-2.2
		c13.5,0,16.9,2.1,16.9,2.1c-0.2-0.1-0.2-0.2-0.2-0.2l1.7-2L83,60l-0.7-2.7l0.4-0.3c-0.2-0.2-0.4-0.5-0.6-0.7L81.8,55
		c-0.3-1.2-0.6-2.3-0.9-3.5l2.2-1.3c1.5,1.4,2.1,2.5,2.1,2.5l8,12.9L91,51.2C90.9,49.1,89.7,44.2,81.9,39.9z"/>
	<path class="st0" d="M122.2,51.1l-7-1.8l-15.9,7.3c-0.1-0.1-0.1-0.2-0.2-0.3l15.3-8.5l2.7-6.9l-7.2-0.5L95.5,50.7
		c-0.1-0.1-0.1-0.2-0.2-0.3l13.5-11.3l1.3-7.3l-7.2,0.9L90.9,45.4c-0.1-0.1-0.3-0.3-0.4-0.4l11.4-13.4l0.1-7.4l-6.9,2.1l-9.9,14.5
		c-0.1-0.1-0.2-0.1-0.3-0.2l8.9-15.4l-1.2-7.3l-6.4,3.4L79,37.4c-5.3-2.4-11.2-3.8-17.5-3.8c-0.1,0-0.2,0-0.3,0c-0.1,0-0.2,0-0.3,0
		c-6.2,0-12.1,1.4-17.5,3.8l-7.1-16.2l-6.4-3.4l-1.2,7.3l8.9,15.4c-0.1,0.1-0.2,0.1-0.3,0.2l-9.9-14.5l-6.9-2.1l0.1,7.4L32.2,45
		c-0.1,0.1-0.3,0.3-0.4,0.4L19.7,32.7l-7.2-0.9l1.3,7.3l13.5,11.3c-0.1,0.1-0.1,0.2-0.2,0.3L12.7,40.5l-7.2,0.5l2.7,6.9l15.3,8.5
		c-0.1,0.1-0.1,0.2-0.2,0.3L7.4,49.3l-7,1.8l3.9,6.3L32,66.6c0,0,3.5-8.9,23.6-10.5c20.1-1.6,30.3,5.3,34.1,11.1l5.6-2.1l23-7.6
		L122.2,51.1z"/>
	<path class="st0" d="M89.6,67.5l-0.1-0.2c-2-3-10.5-12.8-33.9-11c-10.3,0.8-16.1,3.6-19.1,5.8c-3.3,2.4-4.2,4.5-4.2,4.6l-0.1,0.3
		l-0.3-0.1L4.1,57.6L0,50.9L7.5,49l13.1,6L7.9,48l-2.8-7.4l7.7-0.5L25,48.8l-11.4-9.6l-1.4-7.8l7.6,1l12,12.5c0,0,0,0,0,0L20.5,31.8
		l-0.1-7.9l7.4,2.3l8.6,12.7l-7.8-13.5l1.3-7.8l6.8,3.6l0,0.1L43.7,37c5.5-2.4,11.3-3.7,17.3-3.7c0.1,0,0.1,0,0.2,0l0.1,0l0.1,0
		c0.1,0,0.1,0,0.2,0c6,0,11.8,1.2,17.3,3.7l7-16l6.8-3.6l1.3,7.8l-7.8,13.5l8.6-12.7l7.4-2.3l-0.1,7.9l-0.1,0.1L90.8,45c0,0,0,0,0,0
		l12-12.5l7.6-1l-1.4,7.8l-11.4,9.6l12.2-8.7l7.7,0.5l-2.8,7.4l-12.6,7l13.1-6l7.5,1.9l-4.1,6.7l-23.1,7.7L89.6,67.5z M61.3,55.5
		c6.7,0,12.6,1,17.5,3c4.8,1.9,8.7,4.9,11,8.2l5.4-2l22.9-7.6l3.6-5.9l-6.5-1.7l-16,7.4l-0.4-0.8l15.5-8.6l2.5-6.5l-6.7-0.4
		L95.5,51.1l-0.5-0.7L108.5,39l1.2-6.8l-6.7,0.9L90.9,45.8l-0.2-0.2c-0.1-0.1-0.3-0.3-0.4-0.4l-0.2-0.2l11.6-13.5l0.1-6.9l-6.4,2
		l-10,14.7l-0.8-0.5l9-15.6l-1.2-6.8l-6,3.1l-7.1,16.3l-0.3-0.1c-5.5-2.5-11.3-3.8-17.3-3.8l-0.3,0l-0.3,0c-6,0-11.9,1.3-17.3,3.8
		l-0.3,0.1l-7.1-16.3l-6-3.1l-1.2,6.8l9,15.6l-0.8,0.5l-10-14.7l-6.4-2l0.1,6.9l11.6,13.5l-0.2,0.2c-0.1,0.1-0.3,0.3-0.4,0.4
		l-0.2,0.2L19.6,33l-6.7-0.9l1.2,6.8l13.6,11.4l-0.5,0.7L12.6,40.8l-6.7,0.4l2.5,6.5l15.5,8.6L23.5,57l-16-7.4l-6.5,1.7l3.6,5.9
		l27.3,9.1c0.7-1.5,5.3-9,23.7-10.5C57.5,55.6,59.4,55.5,61.3,55.5z"/>
	<path class="st0" d="M115.2,49.3l-15.9,7.3c-0.1-0.1-0.1-0.2-0.2-0.3l15.3-8.5l2.7-6.9l-7.2-0.5L95.5,50.7
		c-0.1-0.1-0.1-0.2-0.2-0.3l13.5-11.3l1.3-7.3l-7.2,0.9L90.9,45.4c-0.1-0.1-0.3-0.3-0.4-0.4l11.4-13.4l0.1-7.4l-6.9,2.1l-9.9,14.5
		c-0.1-0.1-0.2-0.1-0.3-0.2l8.9-15.4l-1.2-7.3l-6.4,3.4L79,37.4c-5.3-2.4-11.2-3.8-17.5-3.8c-0.1,0-0.2,0-0.3,0c-0.1,0-0.2,0-0.3,0
		c-6.2,0-12.1,1.4-17.5,3.8l-7.1-16.2l-6.4-3.4l-1.2,7.3l8.9,15.4c-0.1,0.1-0.2,0.1-0.3,0.2l-9.9-14.5l-6.9-2.1l0.1,7.4L32.2,45
		c-0.1,0.1-0.3,0.3-0.4,0.4L19.7,32.7l-7.2-0.9l1.3,7.3l13.5,11.3c-0.1,0.1-0.1,0.2-0.2,0.3L12.7,40.5l-7.2,0.5l2.7,6.9l15.3,8.5
		c-0.1,0.1-0.1,0.2-0.2,0.3L7.4,49.3l-7,1.8l3.9,6.3L32,66.6l1.4-3.7c1.2-2.5,2.8-4.8,4.6-6.9l0.7-0.8c5.6-5.9,13.4-9.6,22.1-9.6v0
		c0.1,0,0.3,0,0.4,0c0.1,0,0.3,0,0.4,0v0c8.7,0,16.5,3.7,22.1,9.6l0.7,0.8c1.8,2.1,3.4,4.4,4.6,6.9l1.4,3.7l27.7-9.2l3.9-6.3
		L115.2,49.3z"/>
	<path class="st0" d="M4.3,57.4L32,66.6c0,0,3.5-8.9,23.6-10.5c20.1-1.6,30.3,5.3,34.1,11.1l9.7-3.6L83.9,44.9c0,0-18-8.6-29-3.9
		s-17.4,8.6-19.8,10.9s-2.4,2.4-2.4,2.4L29,58.2l-0.6,0.6l-3.9,1.3"/>
	<polygon class="st0" points="78.4,107.9 78.4,84 67.1,83.9 67.1,83.8 61.7,83.9 56.4,83.8 56.4,83.9 45,84 45,107.9 29.8,120.7 
		93.7,120.7 	"/>
	<path class="st0" d="M39.7,54.3c0,0-4.1,0.5-6.5,13.6c0.3-0.4,0.2,1.7,0.2,1.7l-11,25.8c0,0,11.4,8.7,26.2,6.7c0,0,0.2-47.3,0-47.1
		s-9.2-0.7-9.2-0.7"/>
	<path class="st1" d="M91.3,46.5c0.1,0.4-3.6,8.1-4.4,8.3c-0.8,0.1-3.9,1.2-5,0c-1.2-1.2-1.3-4.6-2.5-5.4s1.3-4.6,1.3-4.6"/>
	<path class="st2" d="M57.3,99.1c1.8,1,3.2,1.2,5.2,1.2c4-0.1,7.9-3.2,10.1-5.2c6.9-6.8,11.6-19,11.6-19c2.1-2.8,2.8-9,1.3-11
		c0.8-3.8,0.9-8.4,0-12.3c-3-10.3-15.2-16.7-15.2-16.7c-1.5-0.5-3.5-1.1-5-1.1c-1.1,0-2.4,0.7-2.8,1.5c-0.4-0.9-1.8-1.6-2.8-1.5
		c-9.4,0.4-17.4,9.5-19.5,15.6c-1.6,4.7-1.7,9.8-0.6,14.5c-1.5,1.9-0.9,8.2,1.3,11c0,0,0,0,0,0c0.7,0.7,2.7,2.8,3.1,3.6
		c0.4,0.9,2.7,12.1,13.1,19.2C57.1,99,57.2,99.1,57.3,99.1z"/>
	<path class="st3" d="M62.8,53.7c0.9,6.9,12.1,7.5,14.6,13c2.2,4.9,0.4,10.5-1.3,15.2c0.5-0.3,1-0.7,1.5-1.3
		c-0.5,2.1-0.6,4.6-1.8,6.4c-2.3,3.6-6.1,7.5-8.6,9.7c-1.4,1.2-2.4,1.2-4.3,1.2c-2,0-3,0-4.3-1.2c-2.5-2.2-6.3-6.1-8.6-9.7
		c-1.2-1.9-1.4-4.3-1.8-6.4c0.5,0.6,1,1,1.5,1.3c-1.8-4.8-3.6-10.4-1.3-15.2C50.7,61.3,61.8,60.7,62.8,53.7"/>
	<path class="st2" d="M62.7,83.3c1.3,0,2.9-1.4,4.3-1.6c0-1.3-0.6-2.1-1.5-2.8c1.1,0.1,2.5,1.5,2.8,2.7c0.4,1.4-1.1,1.1-1.8,1.3
		c-1.6,0.5-2.2,1.6-3.8,1.6c-1.6,0-2.2-1.1-3.8-1.6c-0.7-0.2-2.2,0.1-1.8-1.3c0.3-1.3,1.7-2.7,2.8-2.7c-0.9,0.7-1.4,1.6-1.5,2.8
		C59.9,81.9,61.4,83.3,62.7,83.3"/>
	<path class="st2" d="M62.7,86.9c2-1.1,2.6-0.3,6.9,0.9c-0.1-0.6-0.3-1.5-0.5-2.4c1.9,2.2,2.2,3.9,1,3.9c-1-0.4-3.1-1-4.6-1.2
		c-0.3,0-1.7,0.3-2.8,0.3c-1.1,0-2.5-0.3-2.8-0.3c-1.5,0.2-3.6,0.8-4.6,1.2c-1.2,0-0.9-1.7,1-3.9c-0.3,0.9-0.5,1.7-0.5,2.4
		C60.2,86.6,60.7,85.7,62.7,86.9"/>
	<path class="st2" d="M62.7,90.8c1.6,0,3.2-0.3,4.7-0.4c-1.5,1.9-2.8,3-4.7,3c-1.9,0-3.2-1.2-4.7-3C59.6,90.5,61.1,90.8,62.7,90.8"
		/>
	<path class="st4" d="M51.4,71.5l1.3,1c0,0,2.4,0.7,4.2-0.2c-1-1.6-2.1-2.1-2.1-2.1s-0.3-0.2-0.4,0c-0.2,0.1-0.6,0.3-0.9,0.2
		C53.4,70.4,51.4,71.5,51.4,71.5z"/>
	<path class="st2" d="M59.9,68.1c0.8,1.6,0,2.3-0.5,1.9c-2.7-1-5.1-4-8-3c-2.2,0.7-3.2,3.3-1.6,3.9c-0.3-1.2,0.3-1.7,0.8-1.9
		c1.1-0.4,1.6,0,2.6,0.5c-1.1,0.4-2.1,0.9-2.7,2.2c0.6,0.6,1.4,0.8,2.4,0.7c-0.3-0.3-0.5-0.7-0.7-1c0.3-0.2,0.6-0.3,0.9-0.3
		c0.4,1.6,2,1.6,3.8,0.8c-0.6,1.5-2.7,2.5-5.1,1.9c0.9,1.9,4.7,1.6,6.9-1c0.7,0.5,1.1,1.4,1.3,2.4c0.4-0.7,0.5-2.2,0.4-4.1
		C61.6,70.1,60.9,68.3,59.9,68.1"/>
	<path class="st4" d="M74.2,71.5l-1.3,1c0,0-2.4,0.7-4.2-0.2c1-1.6,2.1-2.1,2.1-2.1s0.3-0.2,0.4,0c0.2,0.1,0.6,0.3,0.9,0.2
		C72.2,70.4,74.2,71.5,74.2,71.5z"/>
	<path class="st2" d="M65.7,68.1c-0.8,1.6,0,2.3,0.5,1.9c2.7-1,5.1-4,8-3c2.2,0.7,3.2,3.3,1.6,3.9c0.3-1.2-0.3-1.7-0.8-1.9
		c-1.1-0.4-1.6,0-2.6,0.5c1.1,0.4,2.1,0.9,2.7,2.2c-0.6,0.6-1.4,0.8-2.4,0.7c0.3-0.3,0.5-0.7,0.7-1c-0.3-0.2-0.6-0.3-0.9-0.3
		c-0.4,1.6-2,1.6-3.8,0.8c0.6,1.5,2.7,2.5,5.1,1.9c-0.9,1.9-4.7,1.6-6.9-1c-0.7,0.5-1.1,1.4-1.3,2.4c-0.4-0.7-0.5-2.2-0.4-4.1
		C64,70.1,64.6,68.3,65.7,68.1"/>
	<path class="st5" d="M59.1,81.1c1.8,0.6,2.4,1.5,3.6,1.5c1.2,0,1.8-0.9,3.6-1.5c-0.2-0.8-1-1.6-1-1.6l-1,0.7l0.2-1.2L64,72
		l-1.3-0.6L61.4,72L61,79l0.2,1.2l-1-0.7C60.2,79.5,59.3,80.3,59.1,81.1z"/>
	<path class="st5" d="M57.5,67.2c-0.7-1.9-1.8-3.1-1.8-3.1s5.1,0.8,7,3.9c2-3,7-3.9,7-3.9s-1.1,1.2-1.8,3.1c2.3-2,6.6-1.4,6.5-1.5
		c-2-2.6-4.2-2.5-7.4-4.5c-3.2-2.1-4.4-3.6-4.4-3.6s-1.1,1.5-4.4,3.6c-3.2,2.1-5.4,1.9-7.4,4.5C50.8,65.8,55.1,65.3,57.5,67.2z"/>
	<path class="st5" d="M52.9,82.1c0,0,4.2-2.9,5-6.6c-5.6,2.4-8.5-2-8.5-2C47.9,78.3,52.9,82.1,52.9,82.1z"/>
	<path class="st5" d="M51.8,87.4c0,0,0.4,1.7,2.3,3c-1.5-2.2,1.5-7.6,1.5-7.6C52.9,85.2,51.8,87.4,51.8,87.4z"/>
	<path class="st5" d="M61.4,85.9v-1l-3.1-1.3c0,0-1.2,2-1.6,3.2c1.8-0.9,3.7-1.1,3.7-1.1L61.4,85.9z"/>
	<path class="st5" d="M67.5,75.6c0.9,3.7,5,6.6,5,6.6s5-3.8,3.5-8.5C76.1,73.6,73.1,77.9,67.5,75.6z"/>
	<path class="st5" d="M69.9,82.8c0,0,3,5.3,1.5,7.6c1.9-1.3,2.3-3,2.3-3S72.5,85.2,69.9,82.8z"/>
	<path class="st5" d="M62.7,94.4c0,0-2.4,0.2-3.6-0.7c0,2.4,0.9,3.1,0.9,3.1s1.2,0.6,2.7,0.6v0c1.5,0,2.7-0.6,2.7-0.6
		s0.9-0.8,0.9-3.1C65.1,94.6,62.7,94.4,62.7,94.4z"/>
	<path class="st5" d="M64,84.9v1l1-0.2c0,0,1.9,0.2,3.7,1.1c-0.3-1.2-1.6-3.2-1.6-3.2L64,84.9z"/>
	<path class="st3" d="M48.7,65.8c0.2,0,28.1,0,28.1,0s-2.9-6.7-4.2-7.2c-1.3-0.5-7.1-2.4-9.4-2.4c-2.2,0-8.1,1.1-8.9,1.2"/>
	<path class="st2" d="M45.2,64.3c0.5,0,16.2,0,16.2,0l1.8-3.2l1.9,3.3h1.6l0.7-1.6l0.8,1.7h12.4c0,0,1.8-14.4-4.3-17
		C70.2,45,65.2,42.3,61,43.9c-4.2,1.6-9.8,3.4-11.7,4.8"/>
	<path class="st2" d="M50.4,71.7c0,0,1.5,2.7,6.6,0.6c0,0,0.3-1.7,0.2-1.7c-0.1,0-3.1-0.6-3.2-0.5C53.9,70.1,50.4,71.7,50.4,71.7z"
		/>
	<path class="st2" d="M75.2,71.7c0,0-1.2,1.9-6.5,1c-5.3-0.9,0-1.8,0-1.8s4.5-0.6,4.6-0.6C73.4,70.3,75.2,71.7,75.2,71.7z"/>
	<path class="st2" d="M63,68v14.5c0,0,0.6-0.1,1.4-0.5c0.8-0.5,1.9-1,1.9-1s-0.3-1.1-1-1.6l-1,0.7l0.1-1.2v-6.7l1.5-1.5L63,68z"/>
	<path class="st2" d="M66,72.8c0,0.3,0,6.1,0,6.1l1.6-3.3c0,0,1.4,4.9,5,6.6c0,0,4-0.4,6.6-7.7c0,0-1.1,11.6-4.8,15
		c0,0-2.6-4.8-4.8-6.9c-2.2-2.1-2.8-2.7-2.8-2.7s0,1.1-1,1.2c-1,0.1-1.9,0.4-2-0.1c-0.1-0.5,0-10.2,0.1-10.6s1.9,0.7,1.9,0.7l1.1,1"
		/>
	<path class="st0" d="M63,68v14.5c0,0,1.8-0.1,4-1.9l0.5-5.1c0,0-1.4-3.1,0.8-4.2c2.2-1.2-3.7,0.7-3.8,0.7"/>
	<path class="st0" d="M67.3,72.9c0,0,1.1,7.2,5.2,9.1c0,0,2.9-1.1,7-6.5c4.1-5.4-0.4,6-0.4,6s-2.7,2.9-3.6,3.3
		c-0.9,0.4-1.9,0.3-2.1,0.3s-6.3-5.8-6.5-6.1c-0.2-0.3-2.4-2.7-2.4-3.1c0-0.4,0.2-2.3,0.2-2.3l0.5-1.4l0.7-0.8"/>
	<path class="st0" d="M78.4,72.2c0,0-0.5,6.9-5.8,9.8c-5.3,2.9,3.7,1.6,3.8,1.6c0.1-0.1,6-8.1,6.2-9.1s1-3.2,0.5-3.7
		c-0.5-0.5-1.9-0.9-1.9-0.9"/>
	<path class="st0" d="M67.9,80.8l1.2,4.6l1.7,2.9l-3.6,2.1c0,0,0.9,6.6-2.7,8.1c-3.6,1.5,3.9-0.5,4.2-0.9s7.7-6.8,7.8-8
		c0.2-1.2,0.8-4.2,0.8-4.2l-2.1-0.9"/>
	<path class="st0" d="M76.4,64l-1.4,3.6l1.2,2c0,0,0,1.6-2.7,1.8c0,0,2.3,0.1,2.5,2.9s-0.5,5.2-3.5,7.8c-3,2.6-1.5,3.8-0.6,3.8
		s6.7-6.3,6.7-6.3s1.7-0.3,2.6-5.6c0.8-5.4,2.1-8,1-9.6c-1.1-1.5-0.3-0.8-1.4-2.1c-1.2-1.3-1.5-1.2-1.5-1.2"/>
	<polyline class="st0" points="75.3,68 69.9,62.5 79.5,62.3 	"/>
	<path class="st5" d="M52.8,99c0,0,6.9,5.5,17.6,1.5L64,110.7l-4.1-1.3l2.8,3.3l-1,2.6H45.4l6.5-2.8v-10.3l5.9,3.9
		C57.7,106.2,53.9,101.9,52.8,99z"/>
	<polygon class="st6" points="46,86.3 47.8,95.1 44.7,97.3 44.7,86 	"/>
	<polygon class="st6" points="42.8,86.3 41,95.1 44.1,97.3 44.1,86 	"/>
	<path class="st6" d="M44.2,85c1,0,1.8,0.6,2.2,1.4c0.2-0.3,0.3-0.7,0.3-1.1c0-1.4-1.1-2.5-2.5-2.5c-1.4,0-2.5,1.1-2.5,2.5
		c0,0.4,0.1,0.8,0.3,1.1C42.4,85.6,43.2,85,44.2,85z"/>
	<polygon class="st6" points="82.9,86.3 84.6,95.1 81.6,97.3 81.6,86 	"/>
	<polygon class="st6" points="79.6,86.3 77.9,95.1 80.9,97.3 80.9,86 	"/>
	<path class="st6" d="M81.1,85c1,0,1.8,0.6,2.2,1.4c0.2-0.3,0.3-0.7,0.3-1.1c0-1.4-1.1-2.5-2.5-2.5s-2.5,1.1-2.5,2.5
		c0,0.4,0.1,0.8,0.3,1.1C79.2,85.6,80.1,85,81.1,85z"/>
	<path class="st1" d="M36.7,18.3c0,0,8.6-4.3,22.2-4.4s26.5,4,26.5,4s1.4,1.5,1.2,1.3C86.4,19,74.4,47.9,74.4,47.9
		s-16.2-1.2-20.5-0.6s-5.7,1.2-5.8,0.9C48,47.9,36.7,18.3,36.7,18.3z"/>
	<path class="st1" d="M51.4,38.2c-0.4-0.1-2.9-1.5-4.4-0.9s-7.4,5.6-8.2,6.3c-0.8,0.7-7.8,6.2-7.8,6.6s1.9,4.2,2.6,4.4
		c0.7,0.1,5.7,0.7,5.9,0.8c0.2,0.1,2.5-0.8,2.3-0.2s1,2,0.8,2.6c-0.2,0.6-0.2,0.6-0.2,0.6s-0.4,1.7,0.1,1.9c0.4,0.1,1.9-0.1,3.5-0.5
		c1.6-0.4,18.6,0,19-0.5c0.4-0.5,4.1-1.4,5.6-1.2c1.4,0.2,4.9,1.9,6.4,2.2s3.4,1.2,3.5,0.7c0.1-0.5-0.4-4.6-0.5-5.2s0.7-1.9,0.7-1.9
		s0.3-0.6,1.4-0.9s2.4,0.4,1.9-1.4c-0.5-1.7-0.5-4.6-1.2-4.7c-0.7-0.2,5.3,8,6.1,7.9c0.8-0.1,3.2-4.3,2.9-5
		c-0.3-0.7-2.6-3.1-4.2-4.7c-1.7-1.6-3-3.1-4.6-4.4c-1.6-1.3-5.5-6.6-7.1-7.5c-1.6-0.9-5.5-2.2-5.5-2.2s-4.7-1.6-6.8-1.1
		c-2.1,0.5-6.4,1.2-6.4,1.2"/>
	<path class="st7" d="M75.6,69.1"/>
	<path class="st8" d="M80.6,51.7c-3-5.2-15.6-5.3-18.8-5.4c0,0,0,0,0,0s-0.1,0-0.3,0c-0.2,0-0.3,0-0.3,0s0,0,0,0
		c-3.2,0.1-14.9-0.1-19.1,5.5c0,0,3.4-4,19.4-4C77.5,47.8,80.6,51.7,80.6,51.7z"/>
	<path class="st8" d="M80.4,58.9c-3-3.6-15.4-3.7-18.4-3.7c0,0,0,0,0,0s-0.1,0-0.3,0c-0.2,0-0.3,0-0.3,0s0,0,0,0
		c-3.1,0-14.6-0.1-18.8,3.8c0,0,3.3-2.7,19.1-2.8C77.4,56.2,80.4,58.9,80.4,58.9z"/>
	
		<rect x="60" y="39.4" transform="matrix(-1 -1.224647e-16 1.224647e-16 -1 123.2808 79.7182)" class="st8" width="3.3" height="0.9"/>
	
		<rect x="61.2" y="38.2" transform="matrix(6.123234e-17 -1 1 6.123234e-17 24.1626 101.4995)" class="st8" width="3.3" height="0.9"/>
	
		<rect x="58.8" y="40.8" transform="matrix(6.123234e-17 -1 1 6.123234e-17 19.2189 101.6807)" class="st8" width="3.3" height="0.9"/>
	<rect x="60" y="42" class="st8" width="3.3" height="0.9"/>
	
		<rect x="60" y="34.4" transform="matrix(-1 -1.224647e-16 1.224647e-16 -1 123.2808 69.7888)" class="st8" width="3.3" height="0.9"/>
	
		<rect x="61.2" y="33.3" transform="matrix(6.123234e-17 -1 1 6.123234e-17 29.1272 96.5348)" class="st8" width="3.3" height="0.9"/>
	
		<rect x="58.8" y="35.8" transform="matrix(6.123234e-17 -1 1 6.123234e-17 24.1836 96.716)" class="st8" width="3.3" height="0.9"/>
	<rect x="60" y="37" class="st8" width="3.3" height="0.9"/>
	
		<rect x="60" y="29.5" transform="matrix(-1 -1.224647e-16 1.224647e-16 -1 123.2808 59.9248)" class="st8" width="3.3" height="0.9"/>
	
		<rect x="61.2" y="28.3" transform="matrix(6.123234e-17 -1 1 6.123234e-17 34.0593 91.6028)" class="st8" width="3.3" height="0.9"/>
	
		<rect x="58.8" y="30.9" transform="matrix(6.123234e-17 -1 1 6.123234e-17 29.1156 91.784)" class="st8" width="3.3" height="0.9"/>
	<rect x="60" y="32.1" class="st8" width="3.3" height="0.9"/>
	
		<rect x="60" y="24.5" transform="matrix(-1 -1.224647e-16 1.224647e-16 -1 123.2808 49.9954)" class="st8" width="3.3" height="0.9"/>
	
		<rect x="61.2" y="23.4" transform="matrix(6.123234e-17 -1 1 6.123234e-17 39.0239 86.6381)" class="st8" width="3.3" height="0.9"/>
	
		<rect x="58.8" y="25.9" transform="matrix(6.123234e-17 -1 1 6.123234e-17 34.0803 86.8193)" class="st8" width="3.3" height="0.9"/>
	<rect x="60" y="27.1" class="st8" width="3.3" height="0.9"/>
	
		<rect x="68.4" y="40.7" transform="matrix(0.9277 0.3734 -0.3734 0.9277 20.4453 -23.1604)" class="st8" width="3.3" height="0.9"/>
	<rect x="67.7" y="39.2" transform="matrix(0.3734 -0.9277 0.9277 0.3734 6.6737 89.1622)" class="st8" width="3.3" height="0.9"/>
	<rect x="69" y="42.5" transform="matrix(0.3734 -0.9277 0.9277 0.3734 4.4282 92.3703)" class="st8" width="3.3" height="0.9"/>
	
		<rect x="67.4" y="43.1" transform="matrix(-0.9277 -0.3734 0.3734 -0.9277 116.8233 109.765)" class="st8" width="3.3" height="0.9"/>
	
		<rect x="70.2" y="36.1" transform="matrix(0.9277 0.3734 -0.3734 0.9277 18.8596 -24.1859)" class="st8" width="3.3" height="0.9"/>
	<rect x="69.6" y="34.6" transform="matrix(0.3734 -0.9277 0.9277 0.3734 12.1077 87.9963)" class="st8" width="3.3" height="0.9"/>
	<rect x="70.8" y="37.9" transform="matrix(0.3734 -0.9277 0.9277 0.3734 9.8622 91.2044)" class="st8" width="3.3" height="0.9"/>
	
		<rect x="69.3" y="38.5" transform="matrix(-0.9277 -0.3734 0.3734 -0.9277 122.1169 101.5794)" class="st8" width="3.3" height="0.9"/>
	
		<rect x="72.1" y="31.6" transform="matrix(0.9277 0.3734 -0.3734 0.9277 17.2843 -25.2046)" class="st8" width="3.3" height="0.9"/>
	<rect x="71.4" y="30" transform="matrix(0.3734 -0.9277 0.9277 0.3734 17.5059 86.8382)" class="st8" width="3.3" height="0.9"/>
	<rect x="72.6" y="33.3" transform="matrix(0.3734 -0.9277 0.9277 0.3734 15.2605 90.0462)" class="st8" width="3.3" height="0.9"/>
	
		<rect x="71.1" y="33.9" transform="matrix(-0.9277 -0.3734 0.3734 -0.9277 127.3757 93.4477)" class="st8" width="3.3" height="0.9"/>
	<rect x="73.9" y="27" transform="matrix(0.9277 0.3734 -0.3734 0.9277 15.6986 -26.2301)" class="st8" width="3.3" height="0.9"/>
	<rect x="73.3" y="25.4" transform="matrix(0.3734 -0.9277 0.9277 0.3734 22.9399 85.6723)" class="st8" width="3.3" height="0.9"/>
	<rect x="74.5" y="28.7" transform="matrix(0.3734 -0.9277 0.9277 0.3734 20.6945 88.8804)" class="st8" width="3.3" height="0.9"/>
	
		<rect x="73" y="29.3" transform="matrix(-0.9277 -0.3734 0.3734 -0.9277 132.6693 85.2621)" class="st8" width="3.3" height="0.9"/>
	
		<rect x="51.6" y="40.7" transform="matrix(-0.9277 0.3734 -0.3734 -0.9277 118.088 59.5037)" class="st8" width="3.3" height="0.9"/>
	<rect x="52.3" y="39.2" transform="matrix(-0.3734 -0.9277 0.9277 -0.3734 37.31 104.482)" class="st8" width="3.3" height="0.9"/>
	
		<rect x="51" y="42.5" transform="matrix(-0.3734 -0.9277 0.9277 -0.3734 32.5603 107.8065)" class="st8" width="3.3" height="0.9"/>
	
		<rect x="52.6" y="43.1" transform="matrix(0.9277 -0.3734 0.3734 0.9277 -12.3455 23.4054)" class="st8" width="3.3" height="0.9"/>
	
		<rect x="49.8" y="36.1" transform="matrix(-0.9277 0.3734 -0.3734 -0.9277 112.7943 51.3181)" class="st8" width="3.3" height="0.9"/>
	
		<rect x="50.4" y="34.6" transform="matrix(-0.3734 -0.9277 0.9277 -0.3734 39.0361 96.4368)" class="st8" width="3.3" height="0.9"/>
	
		<rect x="49.2" y="37.9" transform="matrix(-0.3734 -0.9277 0.9277 -0.3734 34.2864 99.7613)" class="st8" width="3.3" height="0.9"/>
	
		<rect x="50.7" y="38.5" transform="matrix(0.9277 -0.3734 0.3734 0.9277 -10.7598 22.3799)" class="st8" width="3.3" height="0.9"/>
	
		<rect x="47.9" y="31.6" transform="matrix(-0.9277 0.3734 -0.3734 -0.9277 107.5355 43.1864)" class="st8" width="3.3" height="0.9"/>
	<rect x="48.6" y="30" transform="matrix(-0.3734 -0.9277 0.9277 -0.3734 40.7508 88.4445)" class="st8" width="3.3" height="0.9"/>
	
		<rect x="47.4" y="33.3" transform="matrix(-0.3734 -0.9277 0.9277 -0.3734 36.0011 91.769)" class="st8" width="3.3" height="0.9"/>
	<rect x="48.9" y="33.9" transform="matrix(0.9277 -0.3734 0.3734 0.9277 -9.1845 21.3612)" class="st8" width="3.3" height="0.9"/>
	
		<rect x="46.1" y="27" transform="matrix(-0.9277 0.3734 -0.3734 -0.9277 102.2419 35.0008)" class="st8" width="3.3" height="0.9"/>
	
		<rect x="46.8" y="25.4" transform="matrix(-0.3734 -0.9277 0.9277 -0.3734 42.4769 80.3993)" class="st8" width="3.3" height="0.9"/>
	
		<rect x="45.5" y="28.7" transform="matrix(-0.3734 -0.9277 0.9277 -0.3734 37.7272 83.7238)" class="st8" width="3.3" height="0.9"/>
	<rect x="47" y="29.3" transform="matrix(0.9277 -0.3734 0.3734 0.9277 -7.5988 20.3357)" class="st8" width="3.3" height="0.9"/>
	<path class="st8" d="M44.6,19.2l0.9,2.8l-1.5,0.5L43,19.7L44.6,19.2z"/>
	<path class="st8" d="M48.4,18.2l0.7,2.8l-1.6,0.4l-0.7-2.8L48.4,18.2z"/>
	<path class="st8" d="M52.3,17.5l0.5,2.9l-1.6,0.2l-0.5-2.9L52.3,17.5z"/>
	<path class="st8" d="M56.2,17.1l0.3,2.9l-1.6,0.1l-0.3-2.9L56.2,17.1z"/>
	<path class="st8" d="M60.2,16.9l0.1,2.9l-1.6,0L58.6,17L60.2,16.9z"/>
	<path class="st8" d="M64.1,17L64,19.9l-1.6-0.1l0.1-2.9L64.1,17z"/>
	<path class="st8" d="M68,17.3l-0.3,2.9L66.1,20l0.3-2.9L68,17.3z"/>
	<path class="st8" d="M71.9,17.9l-0.5,2.9l-1.6-0.3l0.5-2.9L71.9,17.9z"/>
	<path class="st8" d="M75.8,18.7l-0.7,2.8l-1.6-0.4l0.7-2.8L75.8,18.7z"/>
	<path class="st8" d="M79.6,19.9l-0.9,2.8l-1.5-0.5l0.9-2.8L79.6,19.9z"/>
	<path class="st8" d="M49.6,54.6c-1.8,0.3-3.5,0.7-5.2,1.1c0.5-1.8,1-3.7,1.6-5.5C47.2,51.7,48.5,53.1,49.6,54.6z M45.8,54.4
		c0.7-0.2,1.3-0.3,2-0.4c-0.5-0.5-0.9-1.1-1.4-1.6C46.2,53,46,53.7,45.8,54.4z"/>
	<path class="st8" d="M53.3,54.1c-1.8,0.2-3.5,0.5-5.3,0.8c0.5-1.8,1.2-3.6,1.8-5.4C51,51,52.2,52.5,53.3,54.1z M49.5,53.6
		c0.7-0.1,1.3-0.2,2-0.3c-0.4-0.6-0.9-1.1-1.3-1.7C49.9,52.3,49.7,53,49.5,53.6z"/>
	<path class="st8" d="M56.9,53.7c-1.8,0.1-3.5,0.3-5.3,0.6c0.6-1.8,1.3-3.5,2.1-5.3C54.9,50.6,55.9,52.1,56.9,53.7z M53.2,53.1
		c0.7-0.1,1.3-0.2,2-0.2c-0.4-0.6-0.8-1.2-1.2-1.7C53.7,51.8,53.4,52.4,53.2,53.1z"/>
	<path class="st8" d="M60.6,53.6c-1.8,0-3.5,0.1-5.3,0.3c0.7-1.7,1.5-3.5,2.4-5.2C58.7,50.3,59.7,51.9,60.6,53.6z M56.9,52.7
		c0.7,0,1.3-0.1,2-0.1c-0.4-0.6-0.7-1.2-1.1-1.8C57.5,51.5,57.2,52.1,56.9,52.7z"/>
	<path class="st8" d="M64.3,53.6c-1.8-0.1-3.5-0.1-5.3,0c0.8-1.7,1.7-3.4,2.7-5C62.6,50.3,63.4,51.9,64.3,53.6z M60.6,52.6
		c0.7,0,1.3,0,2,0c-0.3-0.6-0.7-1.2-1-1.9C61.3,51.4,60.9,52,60.6,52.6z"/>
	<path class="st8" d="M67.9,53.9c-1.8-0.2-3.5-0.3-5.3-0.3c0.9-1.6,1.9-3.3,2.9-4.9C66.4,50.4,67.2,52.1,67.9,53.9z M64.3,52.6
		c0.7,0,1.3,0.1,2,0.1c-0.3-0.6-0.6-1.3-0.9-1.9C65.1,51.4,64.7,52,64.3,52.6z"/>
	<path class="st8" d="M71.6,54.3c-1.8-0.3-3.5-0.4-5.3-0.6c1-1.6,2.1-3.2,3.2-4.7C70.2,50.8,70.9,52.5,71.6,54.3z M68,52.9
		c0.7,0.1,1.3,0.1,2,0.2c-0.3-0.7-0.5-1.3-0.8-2C68.8,51.7,68.4,52.3,68,52.9z"/>
	<path class="st8" d="M75.2,54.9c-1.7-0.4-3.5-0.6-5.3-0.8c1.1-1.5,2.2-3.1,3.4-4.6C74.1,51.3,74.7,53.1,75.2,54.9z M71.8,53.3
		c0.7,0.1,1.3,0.2,2,0.3c-0.2-0.7-0.5-1.3-0.7-2C72.6,52.2,72.2,52.8,71.8,53.3z"/>
	<path class="st8" d="M78.8,55.8c-1.7-0.4-3.5-0.8-5.2-1.1c1.2-1.5,2.4-2.9,3.7-4.4C77.8,52.1,78.4,53.9,78.8,55.8z M75.4,54
		c0.7,0.1,1.3,0.3,2,0.4c-0.2-0.7-0.4-1.4-0.6-2C76.3,52.9,75.9,53.4,75.4,54z"/>
	<path class="st3" d="M54.7,114.6v-10.3l5.9,3.9c0,0-3.8-4.3-4.9-7.1c0,0,4.8,3.9,12.6,2.8l2.1-3.3c-10.7,4-17.6-1.5-17.6-1.5
		c1.1,2.8,4.9,7.1,4.9,7.1l-5.9-3.9v10.3l-6.5,2.8H53L54.7,114.6z"/>
	<path class="st0" d="M32.9,56c-1,1.2,0.1,5.1,0.1,5.1s1.4,1.9,2.9,1.6c1.5-0.3,2.9,0.1,2.9-0.5c0-0.7,2.5-6.6,1.5-6.6"/>
	<polygon class="st9" points="66.2,43.5 72.4,22.9 65.4,27.8 65.4,41 66.8,30.4 68.3,30.9 	"/>
	<polygon class="st0" points="68.6,29.7 67.1,29.2 70,26.3 	"/>
	<polygon class="st9" points="57.4,43.5 51.3,22.9 58.2,27.8 58.2,41 56.9,30.4 55.4,30.9 	"/>
	<polygon class="st0" points="55,29.7 56.6,29.2 53.6,26.3 	"/>
	<polygon class="st0" points="78.4,107.9 78.4,84 67.1,83.9 67.1,83.8 61.7,83.9 56.4,83.8 56.4,83.9 45,84 45,107.9 29.8,120.7 
		93.7,120.7 	"/>
	<path class="st0" d="M81.4,54.2c0,0-10,0.9-10.2,0.7s0,47.1,0,47.1c16.3,2,28.9-6.7,28.9-6.7L89.6,70.2
		C89.6,70.2,85.8,58.2,81.4,54.2z"/>
	<path class="st0" d="M81,54.3"/>
	<path class="st0" d="M39.4,54.2c0,0,9,0.9,9.2,0.7s0,47.1,0,47.1c-14.8,2-26.2-6.7-26.2-6.7L32.3,72c0,0,1.1-8.2,2.6-10.4
		c1.4-2.3,1.4-3.9,1.4-3.9L39.4,54.2"/>
	<path class="st0" d="M39.7,54.3"/>
	<path class="st2" d="M57.3,99.1c1.8,1,3.2,1.2,5.2,1.2c4-0.1,7.9-3.2,10.1-5.2c6.9-6.8,11.6-19,11.6-19c2.1-2.8,2.8-9,1.3-11
		c0.8-3.8,0.9-8.4,0-12.3c-3-10.3-15.2-16.7-15.2-16.7c-1.5-0.5-3.5-1.1-5-1.1c-1.1,0-2.4,0.7-2.8,1.5c-0.4-0.9-1.8-1.6-2.8-1.5
		c-9.4,0.4-17.4,9.5-19.5,15.6c-1.6,4.7-1.7,9.8-0.6,14.5c-1.5,1.9-0.9,8.2,1.3,11c0,0,0,0,0,0c0.7,0.7,2.7,2.8,3.1,3.6
		c0.4,0.9,2.7,12.1,13.1,19.2C57.1,99,57.2,99.1,57.3,99.1z"/>
	<path class="st3" d="M62.8,53.7c0.9,6.9,12.1,7.5,14.6,13c2.2,4.9,0.4,10.5-1.3,15.2c0.5-0.3,1-0.7,1.5-1.3
		c-0.5,2.1-0.6,4.6-1.8,6.4c-2.3,3.6-6.1,7.5-8.6,9.7c-1.4,1.2-2.4,1.2-4.3,1.2c-2,0-3,0-4.3-1.2c-2.5-2.2-6.3-6.1-8.6-9.7
		c-1.2-1.9-1.4-4.3-1.8-6.4c0.5,0.6,1,1,1.5,1.3c-1.8-4.8-3.6-10.4-1.3-15.2C50.7,61.3,61.8,60.7,62.8,53.7"/>
	<path class="st2" d="M62.7,83.3c1.3,0,2.9-1.4,4.3-1.6c0-1.3-0.6-2.1-1.5-2.8c1.1,0.1,2.5,1.5,2.8,2.7c0.4,1.4-1.1,1.1-1.8,1.3
		c-1.6,0.5-2.2,1.6-3.8,1.6c-1.6,0-2.2-1.1-3.8-1.6c-0.7-0.2-2.2,0.1-1.8-1.3c0.3-1.3,1.7-2.7,2.8-2.7c-0.9,0.7-1.4,1.6-1.5,2.8
		C59.9,81.9,61.4,83.3,62.7,83.3"/>
	<path class="st2" d="M62.7,86.9c2-1.1,2.6-0.3,6.9,0.9c-0.1-0.6-0.3-1.5-0.5-2.4c1.9,2.2,2.2,3.9,1,3.9c-1-0.4-3.1-1-4.6-1.2
		c-0.3,0-1.7,0.3-2.8,0.3c-1.1,0-2.5-0.3-2.8-0.3c-1.5,0.2-3.6,0.8-4.6,1.2c-1.2,0-0.9-1.7,1-3.9c-0.3,0.9-0.5,1.7-0.5,2.4
		C60.2,86.6,60.7,85.7,62.7,86.9"/>
	<path class="st2" d="M62.7,90.8c1.6,0,3.2-0.3,4.7-0.4c-1.5,1.9-2.8,3-4.7,3c-1.9,0-3.2-1.2-4.7-3C59.6,90.5,61.1,90.8,62.7,90.8"
		/>
	<path class="st4" d="M51.4,71.5l1.3,1c0,0,2.4,0.7,4.2-0.2c-1-1.6-2.1-2.1-2.1-2.1s-0.3-0.2-0.4,0c-0.2,0.1-0.6,0.3-0.9,0.2
		C53.4,70.4,51.4,71.5,51.4,71.5z"/>
	<path class="st2" d="M59.9,68.1c0.8,1.6,0,2.3-0.5,1.9c-2.7-1-5.1-4-8-3c0,0-2.8,0.6-4.9,3.5c0,0,2.9-1.6,4.1-1.7
		c1.4-0.1,1.7,0.2,2.6,0.8c-1.1,0.4-2.1,0.9-2.7,2.2c0.6,0.6,1.4,0.8,2.4,0.7c-0.3-0.3-0.5-0.7-0.7-1c0.3-0.2,0.6-0.3,0.9-0.3
		c0.4,1.6,2,1.6,3.8,0.8c-0.6,1.5-2.7,2.5-5.1,1.9c0.9,1.9,4.7,1.6,6.9-1c0.7,0.5,1.1,1.4,1.3,2.4c0.4-0.7,0.5-2.2,0.4-4.1
		C61.6,70.1,60.9,68.3,59.9,68.1"/>
	<path class="st4" d="M74.2,71.5l-1.3,1c0,0-2.4,0.7-4.2-0.2c1-1.6,2.1-2.1,2.1-2.1s0.3-0.2,0.4,0c0.2,0.1,0.6,0.3,0.9,0.2
		C72.2,70.4,74.2,71.5,74.2,71.5z"/>
	<path class="st2" d="M65.7,68.1c-0.8,1.6,0,2.3,0.5,1.9c2.7-1,5.1-4,8-3c2.2,0.7,3.2,3.3,1.6,3.9c0.3-1.2-0.3-1.7-0.8-1.9
		c-1.1-0.4-1.6,0-2.6,0.5c1.1,0.4,2.1,0.9,2.7,2.2c-0.6,0.6-1.4,0.8-2.4,0.7c0.3-0.3,0.5-0.7,0.7-1c-0.3-0.2-0.6-0.3-0.9-0.3
		c-0.4,1.6-2,1.6-3.8,0.8c0.6,1.5,2.7,2.5,5.1,1.9c-0.9,1.9-4.7,1.6-6.9-1c-0.7,0.5-1.1,1.4-1.3,2.4c-0.4-0.7-0.5-2.2-0.4-4.1
		C64,70.1,64.6,68.3,65.7,68.1"/>
	<path class="st5" d="M59.1,81.1c1.8,0.6,2.4,1.5,3.6,1.5c1.2,0,1.8-0.9,3.6-1.5c-0.2-0.8-1-1.6-1-1.6l-1,0.7l0.2-1.2L64,72
		l-1.3-0.6L61.4,72L61,79l0.2,1.2l-1-0.7C60.2,79.5,59.3,80.3,59.1,81.1z"/>
	<path class="st5" d="M57.5,67.2c-0.7-1.9-1.8-3.1-1.8-3.1s5.1,0.8,7,3.9c2-3,7-3.9,7-3.9s-1.1,1.2-1.8,3.1c2.3-2,6.6-1.4,6.5-1.5
		c-2-2.6-4.2-2.5-7.4-4.5c-3.2-2.1-4.4-3.6-4.4-3.6s-1.1,1.5-4.4,3.6c-3.2,2.1-5.4,1.9-7.4,4.5C50.8,65.8,55.1,65.3,57.5,67.2z"/>
	<path class="st5" d="M52.9,82.1c0,0,4.2-2.9,5-6.6c-5.6,2.4-8.5-2-8.5-2C47.9,78.3,52.9,82.1,52.9,82.1z"/>
	<path class="st5" d="M51.8,87.4c0,0,0.4,1.7,2.3,3c-1.5-2.2,1.5-7.6,1.5-7.6C52.9,85.2,51.8,87.4,51.8,87.4z"/>
	<path class="st5" d="M61.4,85.9v-1l-3.1-1.3c0,0-1.2,2-1.6,3.2c1.8-0.9,3.7-1.1,3.7-1.1L61.4,85.9z"/>
	<path class="st5" d="M67.5,75.6c0.9,3.7,5,6.6,5,6.6s5-3.8,3.5-8.5C76.1,73.6,73.1,77.9,67.5,75.6z"/>
	<path class="st5" d="M69.9,82.8c0,0,3,5.3,1.5,7.6c1.9-1.3,2.3-3,2.3-3S72.5,85.2,69.9,82.8z"/>
	<path class="st5" d="M62.7,94.4c0,0-2.4,0.2-3.6-0.7c0,2.4,0.9,3.1,0.9,3.1s1.2,0.6,2.7,0.6v0c1.5,0,2.7-0.6,2.7-0.6
		s0.9-0.8,0.9-3.1C65.1,94.6,62.7,94.4,62.7,94.4z"/>
	<path class="st5" d="M64,84.9v1l1-0.2c0,0,1.9,0.2,3.7,1.1c-0.3-1.2-1.6-3.2-1.6-3.2L64,84.9z"/>
	<path class="st3" d="M48.7,65.8c0.2,0,28.1,0,28.1,0s-2.9-6.7-4.2-7.2c-1.3-0.5-7.1-2.4-9.4-2.4c-2.2,0-8.1,1.1-8.9,1.2"/>
	<path class="st2" d="M45.2,64.3c0.5,0,16.2,0,16.2,0l1.8-3.2l1.9,3.3h1.6l0.7-1.6l0.8,1.7h12.4c0,0,1.8-14.4-4.3-17
		C70.2,45,65.2,42.3,61,43.9c-4.2,1.6-9.8,3.4-11.7,4.8"/>
	<path class="st2" d="M50.4,71.7c0,0,1.5,2.7,6.6,0.6c0,0,0.3-1.7,0.2-1.7c-0.1,0-3.1-0.6-3.2-0.5C53.9,70.1,50.4,71.7,50.4,71.7z"
		/>
	<path class="st2" d="M75.2,71.7c0,0-1.2,1.9-6.5,1c-5.3-0.9,0-1.8,0-1.8s4.5-0.6,4.6-0.6C73.4,70.3,75.2,71.7,75.2,71.7z"/>
	<path class="st2" d="M63,68v14.5c0,0,0.6-0.1,1.4-0.5c0.8-0.5,1.9-1,1.9-1s-0.3-1.1-1-1.6l-1,0.7l0.1-1.2v-6.7l1.5-1.5L63,68z"/>
	<path class="st2" d="M66,72.8c0,0.3,0,6.1,0,6.1l1.6-3.3c0,0,1.4,4.9,5,6.6c0,0,4-0.4,6.6-7.7c0,0-1.1,11.6-4.8,15
		c0,0-2.6-4.8-4.8-6.9c-2.2-2.1-2.8-2.7-2.8-2.7s0,1.1-1,1.2c-1,0.1-1.9,0.4-2-0.1c-0.1-0.5,0-10.2,0.1-10.6s1.9,0.7,1.9,0.7l1.1,1"
		/>
	<path class="st0" d="M63,68v14.5c0,0,1.8-0.1,4-1.9l0.5-5.1c0,0-1.4-3.1,0.8-4.2c2.2-1.2-3.7,0.7-3.8,0.7"/>
	<path class="st0" d="M67.3,72.9c0,0,1.1,7.2,5.2,9.1c0,0,2.9-1.1,7-6.5c4.1-5.4-0.4,6-0.4,6s-2.7,2.9-3.6,3.3
		c-0.9,0.4-1.9,0.3-2.1,0.3s-6.3-5.8-6.5-6.1c-0.2-0.3-2.4-2.7-2.4-3.1c0-0.4,0.2-2.3,0.2-2.3l0.5-1.4l0.7-0.8"/>
	<path class="st0" d="M78.4,72.2c0,0-0.5,6.9-5.8,9.8c-5.3,2.9,3.7,1.6,3.8,1.6c0.1-0.1,6-8.1,6.2-9.1s1-3.2,0.5-3.7
		c-0.5-0.5-1.9-0.9-1.9-0.9"/>
	<path class="st0" d="M67.9,80.8l1.2,4.6l1.7,2.9l-3.6,2.1c0,0,0.9,6.6-2.7,8.1c-3.6,1.5,3.9-0.5,4.2-0.9s7.7-6.8,7.8-8
		c0.2-1.2,0.8-4.2,0.8-4.2l-2.1-0.9"/>
	<path class="st0" d="M76.4,64l-1.4,3.6l1.2,2c0,0,0,1.6-2.7,1.8c0,0,2.3,0.1,2.5,2.9s-0.5,5.2-3.5,7.8c-3,2.6-1.5,3.8-0.6,3.8
		s6.7-6.3,6.7-6.3s1.7-0.3,2.6-5.6c0.8-5.4,2.1-8,1-9.6c-1.1-1.5-0.3-0.8-1.4-2.1c-1.2-1.3-1.5-1.2-1.5-1.2"/>
	<polyline class="st0" points="75.3,68 69.9,62.5 79.5,62.3 	"/>
	<path class="st5" d="M52.8,99c0,0,6.9,5.5,17.6,1.5L64,110.7l-4.1-1.3l2.8,3.3l-1,2.6H45.4l6.5-2.8v-10.3l5.9,3.9
		C57.7,106.2,53.9,101.9,52.8,99z"/>
	<polygon class="st6" points="46.6,86.3 48.3,95.1 45.3,97.3 45.3,86 	"/>
	<polygon class="st6" points="43.3,86.3 41.5,95.1 44.6,97.3 44.6,86 	"/>
	<path class="st4" d="M44.7,85c1,0,1.8,0.6,2.2,1.4c0.2-0.3,0.3-0.7,0.3-1.1c0-1.4-1.1-2.5-2.5-2.5c-1.4,0-2.5,1.1-2.5,2.5
		c0,0.4,0.1,0.8,0.3,1.1C42.9,85.6,43.8,85,44.7,85z"/>
	<polygon class="st6" points="82.1,86.3 83.8,95.1 80.8,97.3 80.8,86 	"/>
	<polygon class="st6" points="78.8,86.3 77.1,95.1 80.1,97.3 80.1,86 	"/>
	<path class="st4" d="M80.3,85c1,0,1.8,0.6,2.2,1.4c0.2-0.3,0.3-0.7,0.3-1.1c0-1.4-1.1-2.5-2.5-2.5s-2.5,1.1-2.5,2.5
		c0,0.4,0.1,0.8,0.3,1.1C78.4,85.6,79.3,85,80.3,85z"/>
	<path class="st1" d="M36.7,18.3c0,0,8.6-4.3,22.2-4.4s26.5,4,26.5,4s1.4,1.5,1.2,1.3C86.4,19,74.4,47.9,74.4,47.9
		s-16.2-1.2-20.5-0.6s-5.7,1.2-5.8,0.9C48,47.9,36.7,18.3,36.7,18.3z"/>
	<path class="st7" d="M75.6,69.1"/>
	<path class="st8" d="M80.6,51.7c-3-5.2-15.6-5.3-18.8-5.4c0,0,0,0,0,0s-0.1,0-0.3,0c-0.2,0-0.3,0-0.3,0s0,0,0,0
		c-3.2,0.1-14.9-0.1-19.1,5.5c0,0,3.4-4,19.4-4C77.5,47.8,80.6,51.7,80.6,51.7z"/>
	<path class="st8" d="M83.4,61.3C79.9,57.1,65.6,57,62,57c0,0,0,0,0,0s-0.1,0-0.3,0c-0.2,0-0.3,0-0.3,0s0,0,0,0
		c-3.6,0-16.9-0.1-21.7,4.4c0,0,3.9-3.2,22.1-3.2C79.9,58.2,83.4,61.3,83.4,61.3z"/>
	<path class="st8" d="M50.3,48L37.7,12.9c15-7.4,32-7.4,47.1,0L72.2,48.2h2.7l13.2-36.9L87,10.7c-16.3-8.5-35-8.5-51.4,0l-1.1,0.6
		L47.6,48H50.3z"/>
	<path class="st9" d="M44.6,14.6l0.9,2.8l-1.5,0.5L43,15.1L44.6,14.6z"/>
	<path class="st9" d="M48.4,13.6l0.7,2.8l-1.6,0.4L46.9,14L48.4,13.6z"/>
	<path class="st9" d="M52.3,12.9l0.5,2.9l-1.6,0.2l-0.5-2.9L52.3,12.9z"/>
	<path class="st9" d="M56.2,12.5l0.3,2.9l-1.6,0.1l-0.3-2.9L56.2,12.5z"/>
	<path class="st9" d="M60.2,12.3l0.1,2.9l-1.6,0l-0.1-2.9L60.2,12.3z"/>
	<path class="st9" d="M64.1,12.4L64,15.3l-1.6-0.1l0.1-2.9L64.1,12.4z"/>
	<path class="st9" d="M68,12.7l-0.3,2.9l-1.6-0.2l0.3-2.9L68,12.7z"/>
	<path class="st9" d="M71.9,13.3l-0.5,2.9l-1.6-0.3l0.5-2.9L71.9,13.3z"/>
	<path class="st9" d="M75.8,14.1L75.1,17l-1.6-0.4l0.7-2.8L75.8,14.1z"/>
	<path class="st9" d="M79.6,15.3l-0.9,2.8l-1.5-0.5l0.9-2.8L79.6,15.3z"/>
	<path class="st9" d="M47,21.1l0.8,2.4l-1.3,0.4l-0.8-2.4L47,21.1z"/>
	<path class="st9" d="M50.3,20.3l0.6,2.4L49.5,23L49,20.6L50.3,20.3z"/>
	<path class="st9" d="M53.6,19.7l0.4,2.5l-1.3,0.2l-0.4-2.5L53.6,19.7z"/>
	<path class="st9" d="M57,19.4l0.2,2.5L55.8,22l-0.2-2.5L57,19.4z"/>
	<path class="st9" d="M60.3,19.2l0.1,2.5l-1.4,0L59,19.2L60.3,19.2z"/>
	<path class="st9" d="M63.7,19.3l-0.1,2.5l-1.4,0l0.1-2.5L63.7,19.3z"/>
	<path class="st9" d="M67,19.5L66.8,22l-1.4-0.1l0.2-2.5L67,19.5z"/>
	<path class="st9" d="M70.4,20l-0.4,2.5l-1.3-0.2l0.4-2.5L70.4,20z"/>
	<path class="st9" d="M73.7,20.7l-0.6,2.4l-1.3-0.3l0.6-2.4L73.7,20.7z"/>
	<path class="st9" d="M76.9,21.7l-0.8,2.4l-1.3-0.4l0.8-2.4L76.9,21.7z"/>
	<path class="st3" d="M54.7,114.6v-10.3l5.9,3.9c0,0-3.8-4.3-4.9-7.1c0,0,4.8,3.9,12.6,2.8l2.1-3.3c-10.7,4-17.6-1.5-17.6-1.5
		c1.1,2.8,4.9,7.1,4.9,7.1l-5.9-3.9v10.3l-6.5,2.8H53L54.7,114.6z"/>
	<path class="st0" d="M32.9,56c-1,1.2,0.1,5.1,0.1,5.1s1.4,1.9,2.9,1.6c1.5-0.3,2.9,0.1,2.9-0.5c0-0.7,2.5-6.6,1.5-6.6"/>
	<path class="st0" d="M37.6,52.4c-1,1-1.2,5.3-1.2,5.3s2.1,1.6,2.6,0.7c0.5-0.9,1-1.4,1.3-2.3c0.3-0.9,0.4-2.2,0-2.3"/>
	<path class="st8" d="M45.2,41.2c0,0-10.1,3.9-10.5,10.2c0,0,2.7-5.3,11.3-8.5"/>
	<path class="st8" d="M45.2,41.2c0,0-10.1,3.9-10.5,10.2c0,0,2.7-5.3,11.3-8.5"/>
	<path class="st8" d="M77.4,41.2c0,0,10.1,3.9,10.5,10.2c0,0-2.7-5.3-11.3-8.5"/>
	<path class="st8" d="M77.4,41.2c0,0,10.1,3.9,10.5,10.2c0,0-2.7-5.3-11.3-8.5"/>
	<path class="st0" d="M87.7,53.2c0.3-0.4,2.1-1.7,2.6-1.4c0.4,0.3,2,0.7,2,0.7s0.2,0.9-0.1,1.2c-0.3,0.3-6.7,7.1-6.9,6.7
		c-0.2-0.4-1.6-4.2-1.8-4.4"/>
	<path class="st10" d="M32,86.5l-4.5,5.6l9-21.9l4.1-2.8l-8.6,21l4.5-5.6l-1.2,7.2l3.4-6.4L38,90.6l1.5-2.6c0,0.4,0.1,0.6,0.1,0.6
		s-2.6,6.8-2.6,7.1c0,0.3-0.2-7-0.2-7l-3.3,5.7l0.7-7.1l-3.4,6.4L32,86.5z"/>
	<path class="st10" d="M91.6,86.5l4.5,5.6l-9-21.9L83,67.4l8.6,21l-4.5-5.6l1.2,7.2l-3.4-6.4l0.7,7.1l-1.5-2.6
		c0,0.4-0.1,0.6-0.1,0.6s2.6,6.8,2.6,7.1c0,0.3,0.2-7,0.2-7l3.3,5.7l-0.7-7.1l3.4,6.4L91.6,86.5z"/>
	<path class="st4" d="M56.6,71.2c0,0-2.3-1.7-5,0.1C51.6,71.3,54.5,73.6,56.6,71.2z"/>
	<circle class="st2" cx="54" cy="70.6" r="1.4"/>
	<path class="st4" d="M73.2,71.2c0,0-2.3-1.7-5,0.1C68.2,71.3,71,73.6,73.2,71.2z"/>
	<circle class="st2" cx="70.7" cy="70.6" r="1.4"/>
	<circle class="st4" cx="71" cy="70.8" r="0.4"/>
	<circle class="st4" cx="54.4" cy="70.8" r="0.4"/>
	<path class="st0" d="M34.9,67.8c0,0-1.5,10.2,4.4,14.2c5.9,3.9,3.6-14.6,3.6-14.6l0.8-3.8"/>
	<path class="st9" d="M42.3,71.2c1.1-0.8,1.5,0.7,1.5,0.7s-0.2-1.3,1-2c0,0-2.7-0.6-3.6,1.1c0,0-1.8,2.3,2.9,11.7l0.3,1.1l0.6-0.3
		l0.3-0.1c0,0-2.6-4.5-3.3-7.6C41.3,72.8,41.7,71.6,42.3,71.2z"/>
	<path class="st9" d="M45.4,56.5L45.4,56.5c-0.3,0.1-0.6-0.1-0.6-0.5c0-1,0-2,0-3.1c0-0.3,0.3-0.7,0.6-0.8l0,0
		c0.3-0.1,0.6,0.1,0.6,0.5c0,1,0,2,0,3.1C46,56.1,45.7,56.4,45.4,56.5z"/>
	<path class="st9" d="M47.7,55.9L47.7,55.9c-0.3,0.1-0.6-0.1-0.6-0.5c0-1,0-2,0-3.1c0-0.3,0.3-0.7,0.6-0.8l0,0
		c0.3-0.1,0.6,0.1,0.6,0.5c0,1,0,2,0,3.1C48.3,55.5,48.1,55.9,47.7,55.9z"/>
	<path class="st9" d="M50.1,55.5L50.1,55.5c-0.3,0.1-0.6-0.2-0.6-0.5c0-1,0-2,0-3.1c0-0.3,0.3-0.7,0.6-0.7l0,0
		c0.3-0.1,0.6,0.2,0.6,0.5c0,1,0,2,0,3.1C50.7,55.1,50.4,55.4,50.1,55.5z"/>
	<path class="st9" d="M52.5,55.1L52.5,55.1c-0.3,0.1-0.6-0.2-0.6-0.5c0-1,0-2,0-3.1c0-0.3,0.3-0.7,0.6-0.7l0,0
		c0.3-0.1,0.6,0.2,0.6,0.5c0,1,0,2,0,3.1C53.1,54.7,52.8,55,52.5,55.1z"/>
	<path class="st9" d="M54.9,54.8L54.9,54.8c-0.3,0-0.6-0.2-0.6-0.5c0-1,0-2,0-3.1c0-0.3,0.3-0.7,0.6-0.7l0,0c0.3,0,0.6,0.2,0.6,0.6
		c0,1,0,2,0,3.1C55.5,54.4,55.2,54.7,54.9,54.8z"/>
	<path class="st9" d="M57.3,54.5L57.3,54.5c-0.3,0-0.6-0.2-0.6-0.6c0-1,0-2,0-3.1c0-0.3,0.3-0.6,0.6-0.7l0,0c0.3,0,0.6,0.2,0.6,0.6
		c0,1,0,2,0,3.1C57.9,54.2,57.6,54.5,57.3,54.5z"/>
	<path class="st9" d="M59.7,54.4L59.7,54.4c-0.3,0-0.6-0.3-0.6-0.6c0-1,0-2,0-3.1c0-0.3,0.3-0.6,0.6-0.6l0,0c0.3,0,0.6,0.3,0.6,0.6
		c0,1,0,2,0,3.1C60.3,54.1,60,54.4,59.7,54.4z"/>
	<path class="st9" d="M62.1,54.4L62.1,54.4c-0.3,0-0.6-0.3-0.6-0.6c0-1,0-2,0-3.1c0-0.3,0.3-0.6,0.6-0.6l0,0c0.3,0,0.6,0.3,0.6,0.6
		c0,1,0,2,0,3.1C62.7,54.1,62.4,54.4,62.1,54.4z"/>
	<path class="st9" d="M64.5,54.4L64.5,54.4c-0.3,0-0.6-0.3-0.6-0.6c0-1,0-2,0-3.1c0-0.3,0.3-0.6,0.6-0.6l0,0c0.3,0,0.6,0.3,0.6,0.6
		c0,1,0,2,0,3.1C65.1,54.1,64.8,54.4,64.5,54.4z"/>
	<path class="st9" d="M66.9,54.5L66.9,54.5c-0.3,0-0.6-0.3-0.6-0.7c0-1,0-2,0-3.1c0-0.3,0.3-0.6,0.6-0.6l0,0c0.3,0,0.6,0.3,0.6,0.7
		c0,1,0,2,0,3.1C67.5,54.3,67.3,54.6,66.9,54.5z"/>
	<path class="st9" d="M69.3,54.8L69.3,54.8c-0.3,0-0.6-0.3-0.6-0.7c0-1,0-2,0-3.1c0-0.3,0.3-0.6,0.6-0.6l0,0c0.3,0,0.6,0.4,0.6,0.7
		c0,1,0,2,0,3.1C69.9,54.5,69.7,54.8,69.3,54.8z"/>
	<path class="st9" d="M71.7,55.1L71.7,55.1c-0.3-0.1-0.6-0.4-0.6-0.7c0-1,0-2,0-3.1c0-0.3,0.3-0.6,0.6-0.5l0,0
		c0.3,0.1,0.6,0.4,0.6,0.7c0,1,0,2,0,3.1C72.3,54.9,72,55.1,71.7,55.1z"/>
	<path class="st9" d="M74.1,55.5L74.1,55.5c-0.3-0.1-0.6-0.4-0.6-0.7c0-1,0-2,0-3.1c0-0.3,0.3-0.6,0.6-0.5l0,0
		c0.3,0.1,0.6,0.4,0.6,0.7c0,1,0,2,0,3.1C74.7,55.3,74.4,55.5,74.1,55.5z"/>
	<path class="st9" d="M76.5,55.9L76.5,55.9c-0.3-0.1-0.6-0.4-0.6-0.8c0-1,0-2,0-3.1c0-0.3,0.3-0.6,0.6-0.5l0,0
		c0.3,0.1,0.6,0.4,0.6,0.8c0,1,0,2,0,3.1C77.1,55.8,76.8,56,76.5,55.9z"/>
	<path class="st9" d="M78.8,56.5L78.8,56.5c-0.3-0.1-0.6-0.4-0.6-0.8c0-1,0-2,0-3.1c0-0.3,0.3-0.6,0.6-0.5l0,0
		c0.3,0.1,0.6,0.4,0.6,0.8c0,1,0,2,0,3.1C79.4,56.4,79.2,56.6,78.8,56.5z"/>
	<path class="st9" d="M61.4,42.2c-0.3,0-0.6-0.3-0.6-0.6V27.4c0-0.3,0.3-0.6,0.6-0.6c0.3,0,0.6,0.3,0.6,0.6v14.2
		C62,42,61.7,42.2,61.4,42.2z"/>
	<path class="st9" d="M57.3,42.7c-0.3,0-0.5-0.2-0.6-0.5L55.3,28c0-0.3,0.2-0.6,0.5-0.6c0.3,0,0.6,0.2,0.6,0.5L57.9,42
		C57.9,42.3,57.7,42.6,57.3,42.7C57.3,42.7,57.3,42.7,57.3,42.7z"/>
	<path class="st9" d="M53.3,43.4c-0.3,0-0.5-0.2-0.5-0.4l-3.1-13.4c-0.1-0.3,0.1-0.6,0.4-0.7c0.3-0.1,0.6,0.1,0.7,0.4l3.1,13.4
		c0.1,0.3-0.1,0.6-0.4,0.7C53.4,43.4,53.4,43.4,53.3,43.4z"/>
	<path class="st9" d="M65.5,42.7C65.5,42.7,65.5,42.7,65.5,42.7c-0.4,0-0.6-0.3-0.6-0.6l1.4-14.2c0-0.3,0.3-0.5,0.6-0.5
		c0.3,0,0.5,0.3,0.5,0.6l-1.4,14.2C66,42.4,65.8,42.7,65.5,42.7z"/>
	<path class="st9" d="M69.5,43.4c0,0-0.1,0-0.1,0c-0.3-0.1-0.5-0.4-0.4-0.7L72,29.3c0.1-0.3,0.4-0.5,0.7-0.4
		c0.3,0.1,0.5,0.4,0.4,0.7L70,43C70,43.2,69.7,43.4,69.5,43.4z"/>
	<circle class="st4" cx="38.4" cy="54.5" r="0.6"/>
	<circle class="st4" cx="40.3" cy="52.8" r="0.6"/>
	<circle class="st4" cx="37.2" cy="56.4" r="0.6"/>
	<circle class="st4" cx="83.6" cy="54.5" r="0.6"/>
	<circle class="st4" cx="82" cy="52.6" r="0.6"/>
	<circle class="st4" cx="84.4" cy="56.5" r="0.6"/>
	<polyline class="st8" points="99.4,29.5 96.1,30.7 87.9,42.3 	"/>
	<polyline class="st8" points="106.4,36.6 102.9,37.1 93.4,47.2 	"/>
	<polyline class="st8" points="111.9,45.5 109.1,45.3 97.6,53.3 	"/>
	<polyline class="st8" points="115.8,54.3 113.4,53.7 100.8,59.7 	"/>
	<polyline class="st8" points="90,24.7 89.2,25.2 83.6,38 	"/>
	<polyline class="st8" points="23,29.5 26.4,30.7 34.6,42.3 	"/>
	<polyline class="st8" points="16,36.6 19.5,37.1 29,47.2 	"/>
	<polyline class="st8" points="10.5,45.5 13.3,45.3 24.8,53.3 	"/>
	<polyline class="st8" points="6.7,54.3 9,53.7 21.7,59.7 	"/>
	<polyline class="st8" points="32.4,24.7 33.2,25.2 38.8,38 	"/>
	<path d="M74.1,72.5c2-1.1,4.9,2.9,4.9,2.9l1.1-1.3L79,74.3c0,0-1.4-2.5-4.4-2.9"/>
	<path d="M73.7,71.7c2.1-1.1,5.2,2.9,5.2,2.9l1.2-1.3l-1.2,0.1c0,0-1.5-2.5-4.7-2.9"/>
	<path d="M73.7,71.8c2.2-1.4,6.1,2.3,6.1,2.3l1.2-1.5l-1.3,0.3c0,0-2-2.3-5.6-2.3"/>
	<path d="M51.3,72.5c-2-1.1-4.9,2.9-4.9,2.9l-1.1-1.3l1.1,0.1c0,0,1.4-2.5,4.4-2.9"/>
	<path d="M51.7,71.7c-2.1-1.1-5.2,2.9-5.2,2.9l-1.2-1.3l1.2,0.1c0,0,1.5-2.5,4.7-2.9"/>
	<path d="M51.7,71.8c-2.2-1.4-6.1,2.3-6.1,2.3l-1.2-1.5l1.3,0.3c0,0,2-2.3,5.6-2.3"/>
</g>
</svg>
