<?xml version="1.0" encoding="utf-8"?>
<!-- Generator: Adobe Illustrator 21.0.2, SVG Export Plug-In . SVG Version: 6.00 Build 0)  -->
<svg version="1.1" id="Layer_1" xmlns="http://www.w3.org/2000/svg" xmlns:xlink="http://www.w3.org/1999/xlink" x="0px" y="0px"
	 viewBox="0 0 246.1 54.7" style="enable-background:new 0 0 246.1 54.7;" xml:space="preserve">
<style type="text/css">
	.st0{fill:#231F20;}
	.st1{fill:#FFFFFF;}
</style>
<g>
	<polygon class="st0" points="63.8,36.9 95.9,36.8 95.9,14.7 89,32.3 76.2,32.3 93.7,4.1 97,0.1 64.5,0.1 64.5,23 70.4,4.6 
		83.9,4.6 66.6,32.4 	"/>
	<polygon class="st0" points="170.4,32.3 157.6,32.3 150.6,14.7 150.6,36.8 182.9,36.9 180,32.4 162.7,4.6 176.1,4.6 182,23 
		182,0.1 149.5,0.1 152.8,4.1 	"/>
	<path class="st0" d="M107.2,21c0,0-0.2,6.2,3.4,10.8c3.6,4.6,9.3,5.8,12.4,5.8s6.3-1.3,6.3-1.3v1.9l14.1-5.6l-4.6-1.7V4.2l2.6-4.2
		h-14.4l2.3,3.3c0,0,0,20.1,0,22.2c0,2.1,0.3,8.1-6.3,8.1c-6.6,0-6.3-8.1-6.3-8.1V3.7l1.6-3.6h-13.6l2.3,3.3V21z"/>
	<polygon class="st0" points="180.7,42.6 64.7,42.6 64.7,47.4 61.6,54.6 185.2,54.6 180.7,48.3 	"/>
	<polygon class="st0" points="238.4,50.6 237.8,50 237.8,41.6 230.6,41.6 229.2,40 229.2,32.7 222.9,32.7 221.1,30.6 221.1,22.9 
		214.4,22.9 212.6,20.9 212.6,12.7 205.5,12.7 203.1,9.9 207.6,0.2 190.6,0.2 190.6,0.2 190.6,51.3 187.5,54.6 205.7,54.6 
		201.9,51.7 201.8,48.4 212.2,37.3 201.5,37.3 201,19.2 227.4,51.7 226.1,54.7 231.3,54.7 246.1,54.7 246.1,50.7 	"/>
	<polygon class="st0" points="55.5,0.2 38.5,0.2 43,9.9 40.6,12.7 33.5,12.7 33.5,20.9 31.7,22.9 25,22.9 25,30.6 23.2,32.7 
		16.9,32.7 16.9,40 15.5,41.6 8.3,41.6 8.3,50 7.7,50.6 0,50.7 0,54.7 14.8,54.7 20,54.7 18.7,51.7 45.1,19.2 44.6,37.3 32.9,37.3 
		44.2,49.5 44.2,51.7 40.4,54.6 58.6,54.6 55.5,51.3 	"/>
</g>
<g>
	<path class="st1" d="M76.4,48.7v1.8c0,0.3,0.1,0.5,0.2,0.6s0.3,0.2,0.7,0.2v0.5h-3.4v-0.5c0.3,0,0.6-0.1,0.7-0.2
		c0.1-0.1,0.2-0.3,0.2-0.6v-3.8c0-0.3-0.1-0.5-0.2-0.6c-0.1-0.1-0.3-0.2-0.7-0.2v-0.5h3.4v0.5c-0.3,0-0.6,0.1-0.7,0.2
		c-0.1,0.1-0.2,0.3-0.2,0.6v1.5h2.7v-1.5c0-0.3-0.1-0.5-0.2-0.6c-0.1-0.1-0.3-0.2-0.7-0.2v-0.5h3.4v0.5c-0.3,0-0.6,0.1-0.7,0.2
		s-0.2,0.3-0.2,0.6v3.8c0,0.3,0.1,0.5,0.2,0.6s0.3,0.2,0.7,0.2v0.5h-3.4v-0.5c0.3,0,0.6-0.1,0.7-0.2c0.1-0.1,0.2-0.3,0.2-0.6v-1.8
		H76.4z"/>
	<path class="st1" d="M84.6,45.8v-0.5H88v0.5h-0.1c-0.3,0-0.5,0.1-0.6,0.2c-0.1,0.1-0.1,0.3-0.1,0.6v3.8c0,0.3,0.1,0.5,0.2,0.6
		s0.3,0.2,0.6,0.2H88v0.5h-3.4v-0.5c0.3,0,0.6-0.1,0.7-0.2s0.2-0.3,0.2-0.6v-3.8c0-0.3-0.1-0.5-0.2-0.6
		C85.2,45.9,84.9,45.8,84.6,45.8z"/>
	<path class="st1" d="M95.3,49.3v-0.5h3v0.5c-0.2,0-0.4,0.1-0.5,0.2s-0.1,0.3-0.1,0.6v1.4c-0.1,0-0.2,0-0.2,0
		c-0.3,0-0.9,0.1-1.6,0.2c-0.5,0.1-1,0.2-1.4,0.2c-1,0-1.8-0.3-2.4-1s-0.9-1.4-0.9-2.3c0-0.9,0.3-1.8,1-2.4c0.6-0.7,1.4-1,2.4-1
		c0.8,0,1.5,0.2,2,0.7c0.1-0.2,0.2-0.4,0.2-0.7h0.5l0.1,2.3h-0.5c-0.3-1.1-1-1.7-1.9-1.7c-0.6,0-1,0.2-1.3,0.6
		c-0.3,0.4-0.4,1.1-0.4,2.1c0,0.7,0,1.2,0.1,1.6s0.3,0.6,0.5,0.8c0.2,0.2,0.6,0.3,1,0.3c0.4,0,0.6-0.1,0.9-0.2
		c0.2-0.2,0.3-0.5,0.3-0.9v-0.2C96,49.6,95.8,49.4,95.3,49.3z"/>
	<path class="st1" d="M103.8,48.7v1.8c0,0.3,0.1,0.5,0.2,0.6s0.3,0.2,0.7,0.2v0.5h-3.4v-0.5c0.3,0,0.6-0.1,0.7-0.2
		c0.1-0.1,0.2-0.3,0.2-0.6v-3.8c0-0.3-0.1-0.5-0.2-0.6c-0.1-0.1-0.3-0.2-0.7-0.2v-0.5h3.4v0.5c-0.3,0-0.6,0.1-0.7,0.2
		c-0.1,0.1-0.2,0.3-0.2,0.6v1.5h2.7v-1.5c0-0.3-0.1-0.5-0.2-0.6c-0.1-0.1-0.3-0.2-0.7-0.2v-0.5h3.4v0.5c-0.3,0-0.6,0.1-0.7,0.2
		s-0.2,0.3-0.2,0.6v3.8c0,0.3,0.1,0.5,0.2,0.6s0.3,0.2,0.7,0.2v0.5h-3.4v-0.5c0.3,0,0.6-0.1,0.7-0.2c0.1-0.1,0.2-0.3,0.2-0.6v-1.8
		H103.8z"/>
	<path class="st1" d="M117.1,51.7v-2.2h0.6c0.2,0.7,0.4,1.1,0.7,1.4c0.3,0.3,0.7,0.4,1,0.4c0.3,0,0.5-0.1,0.7-0.2s0.2-0.4,0.2-0.6
		c0-0.2-0.1-0.3-0.2-0.5s-0.3-0.3-0.7-0.5c-0.7-0.4-1.2-0.6-1.5-0.8c-0.3-0.2-0.5-0.4-0.6-0.7c-0.2-0.3-0.2-0.6-0.2-0.9
		c0-0.6,0.2-1,0.6-1.4s0.9-0.5,1.4-0.5c0.6,0,1,0.2,1.4,0.6c0.1-0.1,0.1-0.2,0.2-0.4h0.6v1.9h-0.5c-0.1-0.4-0.3-0.8-0.5-1
		c-0.3-0.3-0.6-0.4-0.9-0.4c-0.3,0-0.5,0.1-0.6,0.2c-0.1,0.1-0.2,0.3-0.2,0.5c0,0.2,0,0.3,0.1,0.5c0.1,0.1,0.2,0.3,0.4,0.3
		c0.2,0.1,0.5,0.3,1,0.5c0.5,0.2,0.8,0.4,1,0.6c0.2,0.2,0.4,0.4,0.5,0.7c0.1,0.3,0.2,0.6,0.2,0.9c0,0.6-0.2,1.1-0.6,1.4
		c-0.4,0.4-0.9,0.6-1.5,0.6c-0.3,0-0.7-0.1-1-0.2c-0.3-0.1-0.6-0.3-0.8-0.6c-0.1,0.1-0.1,0.3-0.2,0.5H117.1z"/>
	<path class="st1" d="M131.3,49.3v2.4h-0.5c-0.1-0.3-0.2-0.5-0.3-0.6c-0.5,0.5-1.3,0.8-2.1,0.8c-1,0-1.8-0.3-2.4-1
		c-0.6-0.7-0.9-1.4-0.9-2.3c0-0.9,0.3-1.7,0.9-2.4s1.4-1,2.5-1c0.8,0,1.5,0.3,2,0.8c0.1-0.2,0.1-0.4,0.2-0.6h0.5l0.1,2.4h-0.5
		c-0.2-0.7-0.4-1.1-0.8-1.5c-0.4-0.3-0.8-0.5-1.3-0.5c-0.6,0-1,0.2-1.3,0.7s-0.4,1.1-0.4,2.1c0,0.7,0.1,1.2,0.2,1.6
		c0.1,0.4,0.3,0.7,0.6,0.9c0.3,0.2,0.6,0.3,1,0.3c0.5,0,0.9-0.2,1.3-0.5c0.4-0.3,0.6-0.8,0.8-1.5H131.3z"/>
	<path class="st1" d="M137.2,48.7v1.8c0,0.3,0.1,0.5,0.2,0.6s0.3,0.2,0.7,0.2v0.5h-3.4v-0.5c0.3,0,0.6-0.1,0.7-0.2
		c0.1-0.1,0.2-0.3,0.2-0.6v-3.8c0-0.3-0.1-0.5-0.2-0.6c-0.1-0.1-0.3-0.2-0.7-0.2v-0.5h3.4v0.5c-0.3,0-0.6,0.1-0.7,0.2
		c-0.1,0.1-0.2,0.3-0.2,0.6v1.5h2.7v-1.5c0-0.3-0.1-0.5-0.2-0.6c-0.1-0.1-0.3-0.2-0.7-0.2v-0.5h3.4v0.5c-0.3,0-0.6,0.1-0.7,0.2
		s-0.2,0.3-0.2,0.6v3.8c0,0.3,0.1,0.5,0.2,0.6s0.3,0.2,0.7,0.2v0.5H139v-0.5c0.3,0,0.6-0.1,0.7-0.2c0.1-0.1,0.2-0.3,0.2-0.6v-1.8
		H137.2z"/>
	<path class="st1" d="M145.5,48.5c0-0.6,0.2-1.2,0.5-1.7c0.3-0.6,0.8-1,1.3-1.2s1.2-0.4,1.8-0.4c1.1,0,2,0.3,2.7,1
		c0.6,0.7,1,1.5,1,2.4c0,0.9-0.3,1.7-1,2.3c-0.6,0.7-1.5,1-2.6,1c-0.8,0-1.4-0.2-2-0.5s-1-0.8-1.3-1.3S145.5,49.1,145.5,48.5z
		 M147.5,48.5c0,1,0.1,1.7,0.4,2.2c0.3,0.4,0.7,0.7,1.2,0.7c0.6,0,1-0.2,1.2-0.6c0.3-0.4,0.4-1.1,0.4-2.1c0-0.9-0.1-1.6-0.4-2.1
		c-0.3-0.5-0.7-0.7-1.3-0.7c-0.5,0-0.9,0.2-1.2,0.6C147.7,46.9,147.5,47.6,147.5,48.5z"/>
	<path class="st1" d="M156.2,48.5c0-0.6,0.2-1.2,0.5-1.7c0.3-0.6,0.8-1,1.3-1.2s1.2-0.4,1.8-0.4c1.1,0,2,0.3,2.7,1
		c0.6,0.7,1,1.5,1,2.4c0,0.9-0.3,1.7-1,2.3c-0.6,0.7-1.5,1-2.6,1c-0.8,0-1.4-0.2-2-0.5s-1-0.8-1.3-1.3S156.2,49.1,156.2,48.5z
		 M158.2,48.5c0,1,0.1,1.7,0.4,2.2c0.3,0.4,0.7,0.7,1.2,0.7c0.6,0,1-0.2,1.2-0.6c0.3-0.4,0.4-1.1,0.4-2.1c0-0.9-0.1-1.6-0.4-2.1
		c-0.3-0.5-0.7-0.7-1.3-0.7c-0.5,0-0.9,0.2-1.2,0.6C158.3,46.9,158.2,47.6,158.2,48.5z"/>
	<path class="st1" d="M172.5,49.6l0,2.2h-5.9v-0.5h0.1c0.3,0,0.5-0.1,0.6-0.2c0.1-0.1,0.1-0.3,0.1-0.6v-3.8c0-0.3-0.1-0.5-0.2-0.6
		c-0.1-0.1-0.3-0.2-0.6-0.2h-0.1v-0.5h3.5v0.5h-0.1c-0.3,0-0.5,0.1-0.6,0.2c-0.1,0.1-0.1,0.3-0.1,0.6v3.7c0,0.3,0,0.5,0,0.6
		c0,0.1,0.1,0.2,0.3,0.2s0.4,0.1,0.7,0.1c0.6,0,1-0.1,1.3-0.4c0.3-0.3,0.5-0.7,0.6-1.2H172.5z"/>
</g>
<g>
	<path class="st1" d="M76.4,48.7v1.8c0,0.3,0.1,0.5,0.2,0.6s0.3,0.2,0.7,0.2v0.5h-3.4v-0.5c0.3,0,0.6-0.1,0.7-0.2
		c0.1-0.1,0.2-0.3,0.2-0.6v-3.8c0-0.3-0.1-0.5-0.2-0.6c-0.1-0.1-0.3-0.2-0.7-0.2v-0.5h3.4v0.5c-0.3,0-0.6,0.1-0.7,0.2
		c-0.1,0.1-0.2,0.3-0.2,0.6v1.5h2.7v-1.5c0-0.3-0.1-0.5-0.2-0.6c-0.1-0.1-0.3-0.2-0.7-0.2v-0.5h3.4v0.5c-0.3,0-0.6,0.1-0.7,0.2
		s-0.2,0.3-0.2,0.6v3.8c0,0.3,0.1,0.5,0.2,0.6s0.3,0.2,0.7,0.2v0.5h-3.4v-0.5c0.3,0,0.6-0.1,0.7-0.2c0.1-0.1,0.2-0.3,0.2-0.6v-1.8
		H76.4z"/>
	<path class="st1" d="M84.6,45.8v-0.5H88v0.5h-0.1c-0.3,0-0.5,0.1-0.6,0.2c-0.1,0.1-0.1,0.3-0.1,0.6v3.8c0,0.3,0.1,0.5,0.2,0.6
		s0.3,0.2,0.6,0.2H88v0.5h-3.4v-0.5c0.3,0,0.6-0.1,0.7-0.2s0.2-0.3,0.2-0.6v-3.8c0-0.3-0.1-0.5-0.2-0.6
		C85.2,45.9,84.9,45.8,84.6,45.8z"/>
	<path class="st1" d="M95.3,49.3v-0.5h3v0.5c-0.2,0-0.4,0.1-0.5,0.2s-0.1,0.3-0.1,0.6v1.4c-0.1,0-0.2,0-0.2,0
		c-0.3,0-0.9,0.1-1.6,0.2c-0.5,0.1-1,0.2-1.4,0.2c-1,0-1.8-0.3-2.4-1s-0.9-1.4-0.9-2.3c0-0.9,0.3-1.8,1-2.4c0.6-0.7,1.4-1,2.4-1
		c0.8,0,1.5,0.2,2,0.7c0.1-0.2,0.2-0.4,0.2-0.7h0.5l0.1,2.3h-0.5c-0.3-1.1-1-1.7-1.9-1.7c-0.6,0-1,0.2-1.3,0.6
		c-0.3,0.4-0.4,1.1-0.4,2.1c0,0.7,0,1.2,0.1,1.6s0.3,0.6,0.5,0.8c0.2,0.2,0.6,0.3,1,0.3c0.4,0,0.6-0.1,0.9-0.2
		c0.2-0.2,0.3-0.5,0.3-0.9v-0.2C96,49.6,95.8,49.4,95.3,49.3z"/>
	<path class="st1" d="M103.8,48.7v1.8c0,0.3,0.1,0.5,0.2,0.6s0.3,0.2,0.7,0.2v0.5h-3.4v-0.5c0.3,0,0.6-0.1,0.7-0.2
		c0.1-0.1,0.2-0.3,0.2-0.6v-3.8c0-0.3-0.1-0.5-0.2-0.6c-0.1-0.1-0.3-0.2-0.7-0.2v-0.5h3.4v0.5c-0.3,0-0.6,0.1-0.7,0.2
		c-0.1,0.1-0.2,0.3-0.2,0.6v1.5h2.7v-1.5c0-0.3-0.1-0.5-0.2-0.6c-0.1-0.1-0.3-0.2-0.7-0.2v-0.5h3.4v0.5c-0.3,0-0.6,0.1-0.7,0.2
		s-0.2,0.3-0.2,0.6v3.8c0,0.3,0.1,0.5,0.2,0.6s0.3,0.2,0.7,0.2v0.5h-3.4v-0.5c0.3,0,0.6-0.1,0.7-0.2c0.1-0.1,0.2-0.3,0.2-0.6v-1.8
		H103.8z"/>
	<path class="st1" d="M117.1,51.7v-2.2h0.6c0.2,0.7,0.4,1.1,0.7,1.4c0.3,0.3,0.7,0.4,1,0.4c0.3,0,0.5-0.1,0.7-0.2s0.2-0.4,0.2-0.6
		c0-0.2-0.1-0.3-0.2-0.5s-0.3-0.3-0.7-0.5c-0.7-0.4-1.2-0.6-1.5-0.8c-0.3-0.2-0.5-0.4-0.6-0.7c-0.2-0.3-0.2-0.6-0.2-0.9
		c0-0.6,0.2-1,0.6-1.4s0.9-0.5,1.4-0.5c0.6,0,1,0.2,1.4,0.6c0.1-0.1,0.1-0.2,0.2-0.4h0.6v1.9h-0.5c-0.1-0.4-0.3-0.8-0.5-1
		c-0.3-0.3-0.6-0.4-0.9-0.4c-0.3,0-0.5,0.1-0.6,0.2c-0.1,0.1-0.2,0.3-0.2,0.5c0,0.2,0,0.3,0.1,0.5c0.1,0.1,0.2,0.3,0.4,0.3
		c0.2,0.1,0.5,0.3,1,0.5c0.5,0.2,0.8,0.4,1,0.6c0.2,0.2,0.4,0.4,0.5,0.7c0.1,0.3,0.2,0.6,0.2,0.9c0,0.6-0.2,1.1-0.6,1.4
		c-0.4,0.4-0.9,0.6-1.5,0.6c-0.3,0-0.7-0.1-1-0.2c-0.3-0.1-0.6-0.3-0.8-0.6c-0.1,0.1-0.1,0.3-0.2,0.5H117.1z"/>
	<path class="st1" d="M131.3,49.3v2.4h-0.5c-0.1-0.3-0.2-0.5-0.3-0.6c-0.5,0.5-1.3,0.8-2.1,0.8c-1,0-1.8-0.3-2.4-1
		c-0.6-0.7-0.9-1.4-0.9-2.3c0-0.9,0.3-1.7,0.9-2.4s1.4-1,2.5-1c0.8,0,1.5,0.3,2,0.8c0.1-0.2,0.1-0.4,0.2-0.6h0.5l0.1,2.4h-0.5
		c-0.2-0.7-0.4-1.1-0.8-1.5c-0.4-0.3-0.8-0.5-1.3-0.5c-0.6,0-1,0.2-1.3,0.7s-0.4,1.1-0.4,2.1c0,0.7,0.1,1.2,0.2,1.6
		c0.1,0.4,0.3,0.7,0.6,0.9c0.3,0.2,0.6,0.3,1,0.3c0.5,0,0.9-0.2,1.3-0.5c0.4-0.3,0.6-0.8,0.8-1.5H131.3z"/>
	<path class="st1" d="M137.2,48.7v1.8c0,0.3,0.1,0.5,0.2,0.6s0.3,0.2,0.7,0.2v0.5h-3.4v-0.5c0.3,0,0.6-0.1,0.7-0.2
		c0.1-0.1,0.2-0.3,0.2-0.6v-3.8c0-0.3-0.1-0.5-0.2-0.6c-0.1-0.1-0.3-0.2-0.7-0.2v-0.5h3.4v0.5c-0.3,0-0.6,0.1-0.7,0.2
		c-0.1,0.1-0.2,0.3-0.2,0.6v1.5h2.7v-1.5c0-0.3-0.1-0.5-0.2-0.6c-0.1-0.1-0.3-0.2-0.7-0.2v-0.5h3.4v0.5c-0.3,0-0.6,0.1-0.7,0.2
		s-0.2,0.3-0.2,0.6v3.8c0,0.3,0.1,0.5,0.2,0.6s0.3,0.2,0.7,0.2v0.5H139v-0.5c0.3,0,0.6-0.1,0.7-0.2c0.1-0.1,0.2-0.3,0.2-0.6v-1.8
		H137.2z"/>
	<path class="st1" d="M145.5,48.5c0-0.6,0.2-1.2,0.5-1.7c0.3-0.6,0.8-1,1.3-1.2s1.2-0.4,1.8-0.4c1.1,0,2,0.3,2.7,1
		c0.6,0.7,1,1.5,1,2.4c0,0.9-0.3,1.7-1,2.3c-0.6,0.7-1.5,1-2.6,1c-0.8,0-1.4-0.2-2-0.5s-1-0.8-1.3-1.3S145.5,49.1,145.5,48.5z
		 M147.5,48.5c0,1,0.1,1.7,0.4,2.2c0.3,0.4,0.7,0.7,1.2,0.7c0.6,0,1-0.2,1.2-0.6c0.3-0.4,0.4-1.1,0.4-2.1c0-0.9-0.1-1.6-0.4-2.1
		c-0.3-0.5-0.7-0.7-1.3-0.7c-0.5,0-0.9,0.2-1.2,0.6C147.7,46.9,147.5,47.6,147.5,48.5z"/>
	<path class="st1" d="M156.2,48.5c0-0.6,0.2-1.2,0.5-1.7c0.3-0.6,0.8-1,1.3-1.2s1.2-0.4,1.8-0.4c1.1,0,2,0.3,2.7,1
		c0.6,0.7,1,1.5,1,2.4c0,0.9-0.3,1.7-1,2.3c-0.6,0.7-1.5,1-2.6,1c-0.8,0-1.4-0.2-2-0.5s-1-0.8-1.3-1.3S156.2,49.1,156.2,48.5z
		 M158.2,48.5c0,1,0.1,1.7,0.4,2.2c0.3,0.4,0.7,0.7,1.2,0.7c0.6,0,1-0.2,1.2-0.6c0.3-0.4,0.4-1.1,0.4-2.1c0-0.9-0.1-1.6-0.4-2.1
		c-0.3-0.5-0.7-0.7-1.3-0.7c-0.5,0-0.9,0.2-1.2,0.6C158.3,46.9,158.2,47.6,158.2,48.5z"/>
	<path class="st1" d="M172.5,49.6l0,2.2h-5.9v-0.5h0.1c0.3,0,0.5-0.1,0.6-0.2c0.1-0.1,0.1-0.3,0.1-0.6v-3.8c0-0.3-0.1-0.5-0.2-0.6
		c-0.1-0.1-0.3-0.2-0.6-0.2h-0.1v-0.5h3.5v0.5h-0.1c-0.3,0-0.5,0.1-0.6,0.2c-0.1,0.1-0.1,0.3-0.1,0.6v3.7c0,0.3,0,0.5,0,0.6
		c0,0.1,0.1,0.2,0.3,0.2s0.4,0.1,0.7,0.1c0.6,0,1-0.1,1.3-0.4c0.3-0.3,0.5-0.7,0.6-1.2H172.5z"/>
</g>
</svg>
